<svg xmlns="http://www.w3.org/2000/svg">
  <symbol id="trophy" viewBox="0 0 576 512">
    <path
      d="M448,64L448,16C448,7.2 440.8,0 432,0L144,0C135.2,0 128,7.2 128,16L128,64L16,64C7.2,64 0,71.2 0,80L0,140.8C0,201.1 68.3,266 159.6,283.4C185.004,337.083 221.841,367.04 256.005,378.451L256,464L190,464C167.9,464 150,481.9 150,504C150,508.4 153.6,512 158,512L418,512C422.4,512 426,508.4 426,504C426,481.9 408.1,464 386,464L320,464L320.001,378.43C354.163,366.95 390.997,337.079 416.4,283.4C507.5,266.1 576,201.2 576,140.8L576,80C576,71.2 568.8,64 560,64L448,64ZM48,140.8L48,112L128,112C128,151.2 130.1,188.2 140.3,228.8C85.2,209.9 48,169.9 48,140.8ZM528,140.8C528,169.9 490.8,209.9 435.7,228.8C445.9,188.2 448,151.1 448,112L528,112L528,140.8Z"
      fill="currentColor"/>
  </symbol>
  <symbol id="harvard-seas" viewBox="0 0 14 16">
    <path
      d="M.31 4.647l-.14.034v.49c.066 1.105.207 2.007.474 2.986h.15C.525 7.17.375 6.273.31 5.168v-.52zM12.236 10.66c-.017.002-.03.003-.047.003-.32.567-.705 1.144-1.167 1.718-.64.797-1.427 1.59-2.393 2.348.014.035.023.073.028.118l.006.04-.002.002c1.746-1.358 2.927-2.84 3.705-4.25l-.03.01c-.028.004-.062.01-.1.012zM6.187 15.382c-1.14-.686-3.125-2.178-4.476-4.84-.01.01-.03.028-.05.04l-.067.05c1.397 2.738 3.455 4.247 4.594 4.92v-.17z" fill="currentColor"/><path d="M13 7.482c-.093.053-.157.134-.235.242-.148.208-.267.37-.313.43H11.094c.04-.078.09-.187.127-.27.027-.062.048-.127.048-.195 0-.064-.022-.135-.078-.184-.056-.05-.135-.075-.237-.083-.112-.008-.205-.013-.285-.013-.153 0-.262.018-.354.07-.093.055-.157.135-.234.244-.15.208-.268.37-.315.43h-1.83v-.13c.06-.045.222-.164.43-.313.108-.076.19-.14.242-.232.053-.092.07-.202.07-.354 0-.08-.005-.173-.013-.286-.007-.104-.032-.182-.08-.238s-.12-.08-.185-.08c-.068 0-.134.022-.194.048-.084.036-.193.09-.273.127v-1.41l.417-.312.243-.182c-.05-.017-.09-.048-.117-.077-.02-.022-.036-.044-.045-.06l-.01.003c-.16.048-.323.086-.416.124-.052.02-.1.03-.145.03h-.002c-.1 0-.173-.05-.216-.096-.017-.018-.028-.036-.038-.05l-.006.002c-.148.043-.297.08-.383.114-.052.02-.1.03-.145.03-.1 0-.174-.05-.215-.096-.022-.024-.037-.047-.047-.065l-.01.003c-.16.05-.33.09-.425.127-.052.02-.1.03-.144.03-.016 0-.03-.002-.044-.004V5.62l-.073-.035-.2-.092s-.126-.046-.193-.047h-.002c-.062 0-.132.022-.18.078-.042.046-.065.107-.077.184l-.006.054c-.007.092-.01.17-.013.24v.046c0 .152.02.262.07.354.035.058.08.104.134.15l.044.035.065.05.173.122c.005.002.01.005.013.01.116.083.204.148.247.18v1.207h-.38c-.047-.064-.165-.225-.314-.433-.026-.037-.052-.07-.077-.102-.048-.06-.096-.105-.157-.14-.054-.03-.112-.05-.18-.06-.053-.007-.11-.01-.176-.01h-.096l-.19.012c-.102.007-.18.033-.236.082-.028.024-.047.052-.06.082-.013.033-.02.068-.02.1v.005c.002.067.02.13.048.19l.034.075c.03.067.065.14.094.198H3.067c-.046-.063-.165-.223-.314-.43-.005-.01-.012-.018-.018-.026-.048-.068-.093-.124-.145-.168l-.006-.005c-.02-.017-.04-.032-.064-.045-.013-.008-.028-.015-.04-.02-.05-.023-.104-.036-.167-.043-.044-.006-.093-.01-.148-.01-.03 0-.06 0-.093.003l-.193.01c-.104.01-.182.035-.238.084-.04.036-.063.083-.072.13-.005.018-.007.036-.007.053 0 .067.02.132.047.194.037.083.09.192.128.272H.644l.025.092c.23.826.522 1.575.857 2.25.01.02.02.04.027.058l.038.075.07-.047.05-.04.034-.035.008-.01.03-.032.003-.006c.012-.013.02-.027.033-.04l.01-.015c.01-.012.02-.024.028-.038 0-.003.003-.004.004-.006l.195-.27.02-.026c.045-.06.078-.107.1-.135h1.226c-.02.038-.04.085-.063.132-.022.05-.045.097-.063.14-.003.006-.006.012-.008.02-.02.045-.034.093-.04.142v.033c0 .04.008.082.028.12.012.023.028.044.05.062.052.045.123.07.214.08h.023c.056.006.107.01.154.01.048.003.092.004.132.004.152 0 .26-.018.354-.07.093-.054.156-.135.233-.242l.128-.18c.086-.12.153-.208.186-.252h1.453v.604c-.08-.04-.188-.09-.272-.127L5.9 10.4c-.05-.02-.1-.036-.153-.04H5.72c-.062-.002-.133.02-.183.077-.044.05-.068.118-.08.206 0 .01 0 .02-.002.03-.008.103-.012.19-.013.265v.076c.002.047.006.09.013.128.01.065.028.122.058.173.04.068.093.12.162.174.024.02.052.038.08.06.093.065.176.126.244.176.086.063.15.11.187.14v1.224l-.147-.07-.065-.03c-.02-.01-.04-.018-.06-.025-.062-.026-.126-.047-.193-.048-.022 0-.046.003-.068.01-.043.01-.083.032-.115.07-.045.05-.07.118-.08.207l-.004.03c-.007.1-.012.187-.012.262v.074c0 .046.005.087.01.126.012.067.03.125.06.177.014.022.028.043.045.063.05.062.115.112.197.17l.273.198.158.116v1.133l.036.02.006.006c.036.02.07.038.103.058.425.24.688.35.692.35l.032.012.032-.02c.558-.346 1.07-.702 1.542-1.067l.03-.024.002-.002-.005-.04c-.007-.046-.017-.085-.03-.12-.015-.034-.033-.064-.057-.09 0 0-.002 0-.002-.002-.048-.05-.113-.07-.174-.07-.02 0-.04.004-.062.008-.045.007-.088.02-.13.04-.083.036-.192.088-.272.126v-1.41l.025-.02c.076-.056.223-.163.406-.294.108-.078.188-.142.242-.233.04-.072.06-.152.068-.255.002-.03.002-.064.002-.1 0-.08-.004-.175-.012-.287-.003-.03-.007-.06-.014-.088-.01-.04-.022-.072-.038-.102-.01-.018-.02-.032-.032-.047l-.018-.018-.002-.002-.008-.006c-.047-.037-.103-.053-.156-.052-.06 0-.118.017-.174.04l-.02.006c-.083.038-.192.09-.272.13V9.93h.573l.197.272.116.16c.036.05.068.094.103.132.02.024.042.046.066.066.02.016.04.03.063.045.092.053.2.07.353.07.08 0 .174-.005.287-.013h.01c.082-.008.147-.027.198-.06.002-.002.005-.003.006-.006.003 0 .006-.003.008-.005l.015-.01c.057-.05.08-.12.08-.184-.002-.063-.02-.124-.043-.182l-.006-.013-.01-.025-.112-.238V9.93h1.213c.047.064.166.226.313.433l.006.006c.073.1.136.178.223.23l.005.005c.093.053.2.07.354.07.067 0 .146-.004.238-.01l.048-.003c.038-.003.07-.01.1-.015l.032-.007.016-.028c.02-.036.04-.07.058-.106.03-.056.06-.11.087-.165l.012-.024-.007-.026c-.008-.028-.018-.057-.03-.085-.036-.083-.088-.192-.126-.27h.35l.02-.044c.002 0 .002 0 .003-.002l.046-.1c.363-.805.607-1.575.766-2.28l.02-.085-.075-.003h-.01l-.065-.003h-.077c-.156-.006-.265.012-.358.065zM.164 0v3.817h13.67V0H.165zM12.35 2.754l.013-1.972c0-.103.085-.04.085-.04l.08.142c-.02.103 0 .167 0 .167l-.014 1.853c.02.148-.053.064-.053.064-.038-.018-.117-.167-.117-.167l.006-.046zM9.614 1.85s-.014-.483 0-.528c0 0 .02-.444.006-.495 0 0 .008-.104-.012-.155 0 0 0-.065.11-.026 0 0 .04.072.257.04 0 0 .158.025.31.006 0 0 .336-.025.42 0 0 0 .132-.025.172.115l-.007.4.004.01c.015-.04.03-.09.068-.063.015.01.025.023.033.037l.006-.41s.028-.077.133-.09c0 0 .165-.02.19-.006.026.013.38.033.48.013.1-.02.118.063.414-.084 0 0 .08.006.08.058 0 0-.027.547 0 .65 0 0 0 1.003-.02 1.074l.013.32s.013.142-.217.155c0 0 .144.018-.763-.008 0 0-.145-.006-.302.064 0 0-.034-.005-.034-.09 0 0 .026-.3 0-.597l-.01-.26c-.018.005-.047.012-.062.005 0 .06-.002.148-.014.235-.01.08.026.457-.007.648 0 0-.005.064-.144.007 0 0-.84.018-.867-.007 0 0-.23.007-.25-.11.002.003.036-.877.015-.91zM9.49.743s.046 0 .04.077l-.014 1.942s.02.128-.09.212c0 0-.062.07-.062-.04L9.39.954c.002.002.008-.146.1-.21zm-1.803.01c.11-.154.177.155.177.155l-.027 1.933c-.007.065-.02.103-.02.103-.086.02-.137-.16-.137-.16L7.687.754zM6.615 2.598l.013-.816C6.622 1.75 6.643.78 6.643.78c.013-.103.248-.097.248-.097.625.02.61-.032.61-.032.114-.05.12.007.12.007.015.026-.012.283-.012.283.013.032-.015 1.832-.015 1.832-.02.104-.085.07-.085.07-.084.065-.504.026-.504.026-.132-.02-.343.033-.343.033-.032.04-.07-.018-.07-.018l.025-.284zm-1.032.142l.02-2.062c-.005-.053.073-.06.073-.06l.196.05c.047.04.546 0 .546 0 .112.01.118.156.118.156.026.347-.026 2.02-.026 2.02-.007.095-.086.017-.086.017-.32-.01-.446-.004-.446-.004-.046.02-.236 0-.236 0-.164-.02-.16-.116-.16-.116zM5.503.734s.016.128.016.16l-.022 1.86s.02.14-.105.21c0 0-.032.014-.04-.077L5.368.96s.013-.238.137-.226zM3.758.77c.112-.154.178.155.178.155L3.907 2.86c-.006.063-.018.1-.018.1-.087.02-.14-.16-.14-.16L3.757.77zm-1.07 1.835L2.7 1.79c-.008-.032.013-1.003.013-1.003.013-.103.25-.096.25-.096.624.02.61-.032.61-.032.11-.05.12.007.12.007.012.026-.016.283-.016.283.015.032-.012 1.83-.012 1.83-.02.104-.085.072-.085.072-.086.065-.506.025-.506.025-.132-.02-.343.033-.343.033-.03.038-.07-.02-.07-.02l.027-.283zm-1.033.15L1.674.69c-.007-.05.072-.058.072-.058l.196.052c.046.038.546 0 .546 0 .112.006.12.154.12.154.025.347-.028 2.017-.028 2.017-.007.098-.086.02-.086.02-.32-.012-.446-.006-.446-.006-.046.02-.236 0-.236 0-.165-.018-.158-.116-.158-.116zM1.574.75s.014.128.014.16l-.02 1.858s.02.142-.105.213c0 0-.032.013-.04-.077L1.44.973c0 .002.013-.235.137-.223zm.822 2.526H1.37c-.13-.007-.117-.102-.117-.102V2.93c.006-.13-.13-.156-.13-.156-.192.04-.238-.076-.238-.076-.006-.135.218-.123.218-.123.184 0 .13-.16.13-.16l.014-.97c-.014-.097-.25-.097-.25-.097-.152.026-.112-.117-.112-.117.073-.07.23-.062.23-.062.138.006.138-.142.138-.142L1.26.762c.15-.135.177-.026.177-.026-.085.13-.066.445-.066.445l-.005-.024C1.37 1.186 1.358 3 1.358 3c.013.2.15.154.15.154l.854.013c.08 0 .086.05.086.05 0 .066-.052.06-.052.06zm-.11-.207h-.678c-.1.02-.072-.07-.072-.07.06-.11.125-.084.125-.084l.15.038c.053.013.658.007.658.007.19.104 0 .148 0 .148l-.183-.04zm.393.327c-.132 0-.146-.123-.146-.123-.006-.16.12-.16.12-.16.06-.025.13.135.13.135.014.128-.105.147-.105.147zm.07-.372s.06-.063.1-.063c0 0 .658.057.77-.02 0 0 .098-.02.125 0 0 0 .1.077.1.123 0 0-.008.057-.127.025l-.78.006c-.002 0-.207.045-.187-.07zM4.126 1.49l-.02.932s-.014.16.145.154c0 0 .164-.006.196.045 0 0 .112.162-.13.148 0 0-.15-.007-.184.02 0 0-.028.032-.047.333 0 0 .013.182-.125.163 0 0-.914.013-1-.007 0 0-.09.026-.103-.045 0 0 0-.05.09-.05l.922-.006s.084.044.084-.11c0 0 .033-.7.037-1.472.002-.23.012-.47.003-.694 0 0-.02-.096-.047-.115 0 0 0-.103.113-.065 0 0 .098.007.07.155l.007.225s-.02.097.158.07c0 0 .177.026.184.09 0 0 .052.13-.16.117h-.15s-.065.038-.045.114zm2.2 1.77H5.302c-.13-.006-.117-.102-.117-.102v-.244c.007-.128-.13-.154-.13-.154-.19.038-.238-.078-.238-.078-.006-.135.217-.123.217-.123.184 0 .132-.16.132-.16l.013-.97c-.013-.097-.25-.097-.25-.097-.152.024-.113-.117-.113-.117.073-.07.23-.064.23-.064.138.007.138-.14.138-.14L5.19.747c.15-.135.177-.026.177-.026-.086.13-.066.445-.066.445s-.01-.057-.005-.025c.006.032-.006 1.844-.006 1.844.01.2.15.155.15.155l.853.01c.08 0 .085.052.085.052 0 .066-.052.058-.052.058zm-.11-.188h-.678c-.098.02-.072-.07-.072-.07.06-.11.125-.084.125-.084.027.006.15.04.15.04.053.012.658.005.658.005.19.103 0 .148 0 .148l-.183-.038zm.382.328c-.133 0-.146-.123-.146-.123-.006-.16.12-.16.12-.16.06-.026.13.134.13.134.014.13-.103.15-.103.15zm.084-.384s.06-.064.1-.064c0 0 .657.058.77-.02 0 0 .1-.02.125 0 0 0 .098.078.098.123 0 0-.006.058-.124.026l-.783.007c-.002 0-.206.045-.186-.07zm1.375-1.543l-.02.933s-.014.16.145.153c0 0 .165-.006.197.046 0 0 .11.16-.132.148 0 0-.15-.007-.184.02 0 0-.025.03-.046.333 0 0 .014.18-.124.16 0 0-.915.013-1-.006 0 0-.09.027-.104-.044 0 0 0-.05.093-.05l.92-.007s.084.043.084-.11c0 0 .033-.7.038-1.473 0-.23.01-.47.002-.694 0 0-.02-.096-.046-.115 0 0 0-.103.11-.064 0 0 .1.007.073.155l.007.223s-.02.098.16.07c0 0 .175.027.183.09 0 0 .053.13-.16.116h-.148c0-.003-.067.037-.047.113zm2.644 1.77s0 .046-.072.032c0 0-.546.052-1.04.033 0 0-.327.02-.348-.02 0 0-.053-.006-.053-.192 0 0 0-.173-.013-.206 0 0 .013-.09-.15-.11 0 0-.23.04-.236-.096 0 0 .03-.096.256-.083 0 0 .164.028.13-.1l.02-.952s.02-.167-.092-.175c0 0-.104-.005-.138.008 0 0-.19 0-.177-.11 0 0 .065-.115.256-.088 0 0 .145.026.15-.135 0 0-.006-.328.073-.34 0 0 .164.005.118.05 0 0-.08.142-.072.174l-.006.43s-.007.277 0 .31c.007.03-.007.84-.007.84s-.007.156 0 .208v.346s-.014.154.104.116c0 0 1.156-.025 1.23-.006 0 0 .104.018.065.07zm-.02-.15l-1.078-.014-.118.007c-.074-.012-.005-.1.046-.162l.052-.045s.092.097.243.09l.894.013s.098.007.092.058c0 0-.014.078-.132.052zm.29.28c-.066.012-.14-.01-.158-.09-.02-.085.014-.188.104-.207 0 0 .112.02.112.12 0 .105.006.163-.06.176zm.08-.352s.116-.076.162-.063c0 0 .598.038.782.006.184-.033.072-.006.072-.006s.157 0 .204-.058c0 0 .046-.052.072-.007l.1.142s.005.064-.106.057c0 0-1.07 0-1.104.007 0 0-.204.03-.183-.08zM13 2.77s-.276-.006-.257.07c0 0-.02.182-.033.212 0 0 .027.147-.005.174 0 0-.02.083-.197.07 0 0-1.132-.006-1.308.007 0 0-.106-.012-.08-.103 0 0 .08-.038.13-.025.055.013.823-.006.823-.006s.335.025.388-.02l.08-.026s.032-.04.032-.09c0-.05.008-.223.008-.223l.02-.066s-.008-.062 0-1.78c0 0 .025-.134-.06-.217 0 0 0-.05.025-.044.014.002.017.004.017.004.018-.004.117-.027.135.014 0 0 .053.154.007.244 0 0-.014.186.085.186 0 0 .038.04.118.02 0 0 .17.02.17.072 0 0 0 .115-.118.095l-.157.013s-.105.02-.092.14c.013.123-.006.998-.006.998s0 .102.164.095c0 0 .204-.004.204.052 0 0 .053.13-.092.136z" fill="currentColor"/><path d="M6.893 2.346l.19-.007s.073.012.073-.046c0 0-.053-.058-.065-.09 0 0-.006-.61 0-.68l.027-.084s.08-.04.032-.11c0 0-.047-.02-.094-.014l-.065-.012s-.13.007-.11.058l.06.13v.635s-.02.115-.086.147c0 0-.02.065.04.072zM5.81 1.395s.052.058.052.09l-.008.27.007.372s-.006.083-.06.115c0 0-.04.064 0 .084l.212.02s.065-.04.026-.09l-.06-.096.014-.2s.04-.045.06-.02l.236.36s.105.07.132 0c0 0 .007-.025-.026-.05l-.19-.296.013-.103s.204-.076.184-.263c0 0 .04-.186-.222-.27H5.9s-.11-.02-.124.013c0 0-.014.057.033.065zm.21.013s.13-.033.157.005c.026.04.19.18.026.334 0 0-.072.135-.197.04 0 0 0-.194-.006-.334l.02-.045zM1.832 1.464c.014.026.27.817.27.817.112.104.126-.024.126-.024.08-.13.222-.753.222-.753l.06-.122c-.02-.05-.158-.037-.158-.037-.06.006-.02.07-.02.07l.04.136-.133.455c-.047.11-.086-.04-.086-.04-.138-.392-.15-.493-.15-.493.104-.07.025-.136.025-.136l-.243-.006c-.092.006-.04.078-.04.078l.085.056zM2.87 1.446s.02.012.02.037l-.007.683-.02.05s-.065.083-.02.09c0 0-.058.04.422.045 0 0 .184.033.138-.2 0 0-.02-.082-.085.04 0 0-.02.102-.256.07 0 0-.053-.045-.053-.095v-.283s-.008-.07.103-.064c0 0 .124.078.145.045 0 0 .047-.103 0-.167 0 0-.06-.006-.065.02 0 0-.04.077-.15.03 0 0-.053-.103-.02-.185 0 0-.014-.16.098-.147 0 0 .132.026.146.064 0 0 .032.078.065-.013l-.032-.11s-.02-.044-.052-.032c0 0-.223.033-.25.007l-.178.02s-.026.064.053.096zM9.932 1.438l.098-.09.08-.006c.045.018.032.09.032.09-.015.032-.015.572-.015.572.007.115-.025.162-.025.162-.092.115 0 .115 0 .115.04-.005.203.007.203.007.08.006.047-.083.047-.083-.04-.025-.066-.096-.066-.096l.007-.103c.02-.064 0-.54 0-.54.007-.148.092-.104.092-.104.026.072.08.09.08.09.085-.02.064-.166.064-.166.013-.058-.033-.064-.033-.064l-.113.05h-.31c-.05-.012-.11-.05-.11-.05l-.04.006-.06.154v.05c.046.104.068.008.068.008zM11.686 2.157s-.105-.05-.1-.108c0 0-.033-.072-.072-.06 0 0-.045.014-.025.225 0 0 0 .085.097 0l.053.013s.18.142.33-.032c0 0 .163-.147.046-.327 0 0-.086-.13-.237-.194 0 0-.146-.065-.178-.173 0 0 .045-.195.223-.09 0 0 .066.076.105.09 0 0 .052 0 .04-.116l-.016-.097s-.012-.07-.104 0c0 0-.086.032-.106 0 0 0-.25-.02-.256.244 0 0-.026.18.25.296 0 0 .204.096.19.22 0-.002-.026.217-.242.107zM10.956 1.302l.02-.096v-.014c-.008-.014-.02-.027-.033-.038-.038-.026-.054.022-.068.062l.036.12.046-.034zM10.884 1.92v.066c.015.007.044 0 .06-.005v-.067l-.06.006zM10.62 2.12s-.02.076-.092.09c0 0-.04.045.02.057 0 0 .126.04.164-.012 0 0 .046.025 0-.136 0 0 .033-.193.113-.193 0 0 .045.026.052.05 0 .005.004.008.007.01V1.92l.058-.006.003.07.01-.004s.048-.06.073-.045c0 0 .06.083.065.134 0 0 .027.128-.006.16 0 0-.032.026.046.04 0 0 .15.024.197.005 0 0 .11-.033 0-.07 0 0-.06-.052-.092-.117 0 0-.112-.495-.243-.835 0 0-.003-.03-.02-.06v.014l-.02.096-.047.033-.036-.12c-.003.01-.006.018-.01.024.002 0-.21.835-.24.88zm.322-.548s.072.193.072.225-.006.064-.046.064-.144-.005-.144-.005l-.04-.064.052-.21.073-.045.032.037zM12.57 9.93c-.032.066-.064.133-.098.2l-.012-.027c.017.034.03.068.045.1.012.028.02.056.028.084l.008.027.19-.384h-.16zM13.83 4.728l-.003-.615-.066.037-.032.018c-.01.005-.034.017-.06.027-.024.01-.047.022-.064.032l-.05.027-.006.002c-.044.024-.085.046-.118.066-.05.028-.068.047-.086.06-.056.04-.074.097-.074.143v.008l-.006.062c.004.013.002.023.006.03.003.006.005.018.014.032.01.017.022.048.04.068.043.046.114.107.215.107.044 0 0-.02.267-.042v-.004l-.06-.004-.026-.003c0 .04-.014.39-.014.39 0 .595-.07 1.366-.262 2.244l.07.002.07.002c.19-.878.252-1.65.252-2.25l-.006-.44zm-.136-.094l-.06.02c-.04.016-.07.02-.095.02-.058 0-.092-.023-.12-.05l-.007-.01c.063-.024.122-.05.173-.084.034-.022.065-.048.09-.08l.018-.03v.214zM.31 4.647s-.03-.09-.03-.105c0-.03.008-.065.03-.1l-.006.01v-.308H.33c.053 0 .104.012.147.04.03.02.06.046.082.087l-.067.037.118-.065.066-.036C.646 4.146.6 4.1.55 4.068s-.107-.055-.163-.056H.17v.67c.13-.03.123-.03.14-.035zM3.166 4.26c0 .002 0 .004.003.007v.007c.01.02.012.042.012.062v-.017c.11-.06.224-.116.288-.14.046-.018.1-.03.148-.03s.096.012.134.035c.025.016.05.037.068.068l.055-.028s.002 0 .003-.002l.06-.032c-.03-.052-.07-.092-.117-.12-.06-.038-.133-.053-.202-.053-.07 0-.137.015-.197.04-.07.026-.174.078-.28.133l.026.073zM3.97 4.25l.01.02v.002c.007.022.01.043.01.063v-.023c.105-.057.214-.11.276-.134.047-.018.1-.03.15-.03.08.002.15.025.198.1l-.038.02.04-.022.057-.03c.003 0 .006-.003.008-.004l.054-.028c-.076-.122-.204-.172-.318-.17-.07 0-.138.016-.198.04-.072.027-.175.078-.28.134l.03.06zM4.766 4.246c.004.007.007.017.01.027.005.013.007.025.01.037.103-.056.207-.108.27-.13.045-.02.1-.03.148-.03.052 0 .1.01.14.037.026.018.052.043.072.08-.04.02-.077.04-.108.06-.02.01-.035.02-.048.027l.048-.028c.044-.026.1-.057.162-.09l.022-.013.035-.02.006-.002c-.03-.055-.07-.098-.118-.128-.065-.04-.14-.058-.21-.058-.07 0-.14.016-.2.04-.068.026-.168.075-.27.128l.03.064zM5.13 4.52c-.157.05-.33.09-.445.135-.04.016-.07.02-.094.02-.057 0-.09-.023-.117-.05 0-.002-.002-.004-.003-.005h.005c-.027.01-.056.02-.085.028l-.054.016c.01.015.022.032.04.05.04.046.113.096.214.096.045 0 .093-.01.145-.03.093-.037.26-.075.418-.124 0 0-.016-.123-.024-.135zM5.568 4.285c.005.017.007.034.007.05 0 .035-.01.068-.027.096.016-.027.028-.06.027-.094V4.33c.117-.062.242-.124.312-.15.047-.02.1-.03.15-.03.05 0 .096.01.135.035.025.017.05.04.07.072-.013.006-.024.013-.036.02l.06-.033.032-.017.054-.03.008-.003c-.03-.054-.072-.096-.118-.124-.063-.04-.136-.055-.205-.055-.07 0-.14.015-.2.04-.066.025-.167.074-.27.127v.103z" fill="currentColor"/><path d="M5.22 4.633l.078-.03.03-.012c.004 0 .007-.002.01-.003.014-.006.026-.01.04-.018 0 0 0-.002.003-.003.012-.005.022-.01.033-.017.003 0 .006-.003.008-.004l.034-.02c.033-.023.062-.048.084-.08.004-.004.008-.01.01-.015.016-.027.028-.06.028-.094 0-.017-.003-.034-.007-.05V4.18l-.037.02-.006.003-.034.018-.023.013c-.062.033-.117.064-.162.09-.02.01-.034.02-.047.028-.02.012-.034.02-.045.03-.007.004-.015.01-.02.016-.003 0-.005.003-.006.005-.006.004-.01.01-.013.013l-.006.006c-.003.004-.006.01-.01.013l-.004.007-.008.014-.003.006-.006.015-.003.004-.006.02c0 .005 0 .01-.002.017v.022c0 .016 0 .03.004.042l.017.07v.002l.012-.004.057-.02zM6.394 4.263l.004.013c.007.02.01.04.01.06V4.32c.11-.06.224-.116.288-.14.047-.02.1-.03.15-.03s.098.01.137.035c.028.02.055.044.075.084l-.065.036c.022-.012.046-.025.07-.04l.047-.026h.002l.064-.037c-.03-.057-.073-.1-.12-.13-.065-.043-.14-.06-.21-.06-.07 0-.138.016-.2.04-.068.028-.17.08-.275.134l.024.076z" fill="currentColor"/><path d="M5.944 4.597c-.005-.015-.007-.033-.007-.055V4.53c-.03.008-.318.083-.42.125-.038.015-.07.02-.095.02-.057 0-.09-.024-.117-.052l-.014-.016c.004 0 .006-.002.008-.003l-.08.03-.058.018c.01.017.024.04.046.062.042.046.115.095.215.095h.002c.044 0 .093-.01.143-.03.09-.036.248-.073.398-.118l-.02-.065zM6.398 4.276l-.004-.013-.024-.076-.01.005-.008.004-.054.03-.03.016c-.022.01-.042.023-.062.033L6.2 4.28c-.01.004-.02.01-.03.016l-.016.01c-.004 0-.008.003-.01.005l-.02.012c-.042.024-.07.042-.09.054-.004.002-.008.004-.01.007-.008.005-.015.01-.022.017-.002 0-.002.003-.004.004l-.015.015c-.002 0-.003.003-.004.004-.006.005-.01.01-.012.015l-.004.005-.008.014-.003.006-.006.013-.003.006c0 .005-.003.01-.004.014 0 .002 0 .004-.002.006v.014c-.002 0-.002.003-.002.005v.016c0 .02.003.04.007.054l.02.065v.002l.01-.003.054-.02.084-.03c.012-.003.022-.008.033-.012.004 0 .008-.002.01-.004.015-.005.028-.01.04-.018l.007-.002.032-.017c.003 0 .006-.003.01-.005l.034-.02c.036-.023.066-.05.09-.08.01-.015.02-.03.027-.047.008-.02.014-.045.014-.07 0-.02-.002-.04-.01-.06zM7.208 4.278c.006.02.01.038.01.058 0 .04-.016.08-.037.11l-.024.03c.01-.01.018-.02.025-.03.022-.03.038-.07.038-.11.12-.064.25-.13.32-.157.046-.02.1-.03.148-.03.082.002.15.024.2.098l-.036.02c.03-.017.062-.034.095-.05v-.002l.048-.025.013-.005c-.077-.122-.204-.17-.32-.17-.068 0-.137.016-.196.04-.077.03-.193.088-.306.147l.024.076zM6.78 4.58c-.002-.012-.003-.024-.003-.038V4.52c-.028.006-.34.09-.453.135-.037.015-.068.02-.093.02-.056 0-.09-.024-.117-.052l-.008-.01c.002 0 .005 0 .007-.002l-.084.03-.055.02c.01.015.023.034.042.055.036.04.094.08.172.092l.042.003c.044 0 .092-.01.144-.03.095-.038.264-.077.423-.127L6.78 4.58z" fill="currentColor"/><path d="M7.208 4.278L7.184 4.2l-.008.004-.065.035c-.016.01-.032.018-.047.026-.024.014-.05.027-.07.04-.003 0-.005.003-.007.004l-.03.018c-.04.022-.065.038-.084.05l-.008.006-.02.016-.008.008-.01.01-.006.01c-.003.002-.006.005-.008.01l-.005.007-.006.01c0 .004-.002.006-.004.01l-.006.013-.002.005c-.003.007-.005.013-.006.02 0 0 0 .003-.002.005v.01c-.003.01-.003.017-.003.024 0 .014.002.026.004.037l.018.072.012-.002.06-.02.075-.03.03-.012c.004 0 .007-.002.01-.004.013-.005.025-.01.038-.017l.004-.002c.01-.005.02-.01.03-.017.004 0 .006-.003.01-.005l.03-.02H7.1l.005-.005c.02-.013.036-.028.05-.043.01-.01.02-.02.025-.03.022-.03.037-.068.037-.11 0-.02-.003-.038-.01-.057zM8.037 4.246l.01.024.002.002c.006.02.01.042.01.062 0-.01 0-.02-.003-.028.103-.053.21-.105.268-.127.047-.02.1-.03.15-.03.05 0 .098.01.138.036.027.018.052.043.072.08-.01.006-.02.01-.03.017l.085-.046.015-.008.05-.027c-.032-.057-.073-.1-.118-.13-.065-.042-.14-.058-.21-.058s-.14.015-.2.04c-.068.025-.168.074-.27.128l.03.063z" fill="currentColor"/><path d="M7.576 4.605c-.006-.015-.01-.036-.01-.063v-.006c-.033.01-.303.08-.4.12-.037.014-.068.02-.095.02-.055 0-.09-.025-.116-.053l-.016-.02c.002 0 .004 0 .006-.002l-.076.03-.06.02c.01.018.026.04.05.064.04.046.113.096.212.096.046 0 .094-.01.146-.03.086-.034.235-.07.382-.114l-.022-.06zM8.05 4.273h-.002V4.27l-.01-.023-.03-.063h-.003l-.013.006-.047.025-.095.052-.013.007c-.012.006-.022.012-.03.018-.004 0-.007.003-.01.005l-.037.02-.08.047-.027.018c-.024.018-.042.037-.056.058v.002c-.005.007-.01.013-.012.02l-.002.004-.007.015c0 .003 0 .006-.002.008L7.57 4.5l-.002.01-.002.01v.016l-.002.006c0 .026.006.047.012.062l.02.06H7.6l.007-.002.054-.018.084-.03c.013 0 .026-.006.038-.01l.01-.005.042-.02c.002 0 .005 0 .006-.002.012-.005.023-.01.034-.017.004 0 .007-.002.01-.004l.037-.02c.033-.02.062-.043.085-.07l.012-.012.008-.013c.02-.03.033-.065.033-.103 0-.022-.002-.043-.01-.064zM8.77 4.228h.012c.006.002.013 0 .03.014.008.004.02.017.024.03.007.022.01.042.01.063V4.33c.118-.062.243-.125.312-.152.048-.018.1-.03.15-.03.05 0 .097.012.135.036.026.017.05.04.07.072l.057-.03.062-.033c-.032-.054-.073-.095-.118-.123-.065-.04-.137-.056-.206-.056-.07 0-.138.015-.198.04-.077.03-.193.087-.306.147l-.05.027h.017zM10.376 4.22h-.003.003l.07-.038.025.075s.004.005.007.015c.006.015.008.03.01.043v-.002c.106-.057.215-.11.276-.134.048-.02.1-.03.15-.03.08 0 .15.024.2.097l.04-.022.018-.01.06-.03c-.074-.122-.2-.172-.316-.17-.07 0-.14.015-.198.04-.07.026-.174.078-.278.133-.02.01-.042.02-.062.032zM.573 4.81c.046 0 .093-.01.145-.03.086-.034.234-.07.382-.114l-.02-.06c-.008-.015-.013-.037-.013-.064v-.006c-.02.005-.3.08-.4.12-.036.014-.067.02-.093.02-.057 0-.09-.025-.117-.053l-.016-.02c-.02.01-.13.047-.13.047.01.018.027.04.05.064.04.046.114.095.213.095zM1.188 4.015c-.07 0-.138.015-.198.04-.075.028-.2.09-.313.152l.04.13c.116-.06.254-.13.322-.158.046-.02.1-.03.148-.03.082.002.15.025.2.098l-.04.022.16-.085c-.077-.122-.204-.173-.32-.17zM2.717 4.596c-.005-.014-.008-.032-.008-.054V4.53v-.002c-.04.012-.32.087-.42.127-.04.015-.07.02-.096.02-.056 0-.09-.024-.117-.052-.005-.006-.01-.01-.014-.017h.003l-.075.026-.057.02c.01.017.024.04.045.062.042.045.115.095.215.095.046 0 .094-.01.145-.03.09-.036.247-.073.398-.118l-.02-.066zM4.305 4.605c-.006-.014-.01-.036-.01-.063v-.006c-.04.01-.302.08-.4.118-.036.015-.067.02-.093.02-.057 0-.09-.024-.117-.052 0-.002-.003-.004-.005-.006l-.078.027-.058.02c.01.016.025.036.043.054.04.046.11.093.21.093h.007c.044 0 .09-.01.143-.03.085-.035.234-.07.38-.114l-.022-.06zM3.515 4.6c-.005-.014-.01-.033-.01-.057v-.008c-.05.013-.31.083-.406.12-.04.015-.07.02-.096.02-.057 0-.09-.024-.117-.052l-.008-.01s.003 0 .005-.002l-.083.03-.056.018c.01.016.023.036.042.056.042.046.114.095.215.095.045 0 .094-.01.145-.03.088-.035.24-.07.387-.116l-.02-.063zM.677 4.207H.672l-.06.035-.12.065-.005.004-.028.017c-.002 0-.003 0-.004.002-.043.023-.072.04-.09.052l-.02.02H.343c-.006.005-.012.01-.017.017l-.003.002c-.005.006-.01.012-.012.017 0 0 0 .002-.003.004-.023.034-.034.064-.034.098 0 .024.032.107.032.107.002 0 .11-.04.133-.046h.005l.035-.015.007-.004.038-.018h.003L.56 4.55l.01-.005.03-.02c.008-.005.016-.01.022-.016.038-.03.07-.067.086-.112.006-.018.01-.038.01-.058v-.002l-.04-.13z" fill="currentColor"/><path d="M1.55 4.275c-.005-.015-.01-.022-.01-.024l-.026-.07-.007.004-.06.032-.012.006c-.03.016-.06.03-.086.047-.003 0-.005 0-.007.002l-.034.02c-.005 0-.01.004-.013.005l-.03.018-.006.003-.03.018c-.036.02-.06.036-.075.046-.01.006-.015.012-.022.018l-.002.002-.016.017-.003.003-.01.016c-.002 0-.003.003-.004.005l-.01.015c0 .002 0 .004-.002.006l-.006.014-.002.008-.005.012v.008l-.002.012V4.54c0 .028.004.05.01.063l.02.06h.01l.054-.02c.028-.007.057-.017.085-.026l.037-.014.01-.005.042-.018c.002 0 .004 0 .006-.002.012-.005.023-.01.034-.017.004 0 .007-.002.01-.004l.037-.02c.037-.024.07-.05.096-.082.014-.02.025-.04.033-.065.005-.018.008-.036.008-.054v-.028c-.003-.01-.005-.022-.01-.033zM2.066 4.605l.038-.015.006-.003.04-.018v-.002l.037-.018c0-.002.003-.003.005-.004l.034-.02c.034-.023.063-.048.086-.08.02-.027.034-.06.037-.098v-.012c0-.017-.004-.034-.008-.05l-.022-.057-.013-.03-.003.002-.062.034-.01.006c-.008.004-.017.008-.024.013l-.092.05-.036.022-.042.024-.043.028h-.003l-.005.005-.02.017-.006.006-.012.012-.006.008-.008.012-.005.007c-.004.004-.007.01-.008.013l-.005.007-.005.013-.003.007c-.004.006-.005.012-.007.017v.005l-.003.015-.002.02c0 .017.002.03.005.043l.017.07v.002l.013-.005.058-.02c.027-.008.052-.018.076-.027zM3.17 4.27V4.27l-.004-.007-.026-.072-.007.004-.005.003-.04.022-.017.01c-.025.012-.05.026-.074.04l-.034.017-.017.01-.018.01-.03.018-.062.036c-.017.01-.03.018-.038.025l-.006.005-.015.012-.007.008-.01.01-.007.01-.008.01-.006.01-.006.01c0 .004-.002.006-.004.01l-.005.01c0 .004 0 .007-.002.01 0 .004-.003.008-.004.012l-.002.008-.002.012v.01l-.002.014c0 .02.004.04.008.053l.02.065.01-.002.056-.02c.028-.008.057-.018.083-.028.012-.004.022-.01.034-.013l.01-.005.04-.018s.003 0 .004-.002c.012-.006.023-.01.034-.018.004 0 .006-.003.01-.004.01-.008.022-.014.033-.022.036-.022.067-.047.092-.08l.02-.03c.013-.026.02-.054.02-.084 0-.02-.003-.042-.01-.062V4.27zM3.99 4.336c0-.02-.003-.042-.01-.062v-.002l-.01-.023-.032-.062-.06.032c-.002 0-.002 0-.003.002l-.056.03c-.013.006-.024.013-.036.02-.004 0-.008.003-.012.005-.01.005-.02.01-.028.016l-.012.007c-.01.006-.02.01-.027.016-.003 0-.006.002-.008.004-.045.026-.078.046-.096.06 0 0-.004 0-.005.003-.017.012-.03.024-.04.037-.002 0-.003.002-.003.003l-.014.017c0 .002-.002.004-.003.005l-.01.015c0 .003 0 .005-.002.007l-.005.014-.003.01c0 .003-.003.007-.004.01v.008l-.002.012v.008c-.002.002-.002.004-.002.005v.01c0 .023.005.043.01.057l.016.065h.003l.01-.003.055-.018.085-.03.035-.014c.003 0 .007-.002.01-.004.015-.005.028-.012.04-.018.003 0 .005 0 .006-.002l.035-.017.01-.006.037-.02c.025-.017.048-.034.07-.055 0-.002 0-.003.002-.005 0 0 0-.002.002-.002l.018-.02c0-.003.004-.007.005-.01.015-.02.024-.042.03-.066l.005-.025V4.35v-.014zM4.786 4.31c-.002-.012-.005-.024-.01-.035-.003-.013-.006-.022-.01-.03l-.03-.062h-.003l-.05.028-.01.006-.056.03-.04.023H4.57c-.01.008-.023.016-.036.022l-.008.005c-.013.008-.026.015-.04.02-.025.017-.048.03-.065.04l-.038.026c-.01.005-.016.012-.022.018l-.003.002-.016.017s0 .003-.002.004c-.004.005-.01.01-.012.016l-.004.006-.01.014v.008l-.007.012c-.002.003-.002.006-.003.01 0 .003-.003.007-.004.01 0 .003 0 .006-.002.01 0 .003 0 .006-.002.01V4.54c0 .028.005.05.01.064l.022.06.008-.002.054-.018.085-.03.038-.014h.01l.043-.02.004-.002c.012-.005.023-.01.035-.017.004 0 .006-.002.01-.004l.037-.02c.036-.024.068-.05.094-.082.026-.032.043-.074.043-.118V4.31zM8.848 4.335c0-.02-.004-.042-.01-.062-.007-.014-.018-.027-.026-.032-.017-.01-.024-.01-.03-.01l-.01-.002h-.016l-.016.008c-.03.015-.057.032-.084.046l-.013.008-.02.01-.017.01-.017.01-.012.006-.038.023c-.024.013-.042.024-.054.032-.008.006-.015.012-.02.018-.003 0-.004.002-.006.004l-.014.014c0 .002-.004.004-.005.006l-.01.014s0 .004-.003.006l-.008.013-.004.007-.007.014c0 .002-.002.003-.003.005-.004.014-.008.026-.01.038v.02c0 .017.002.03.005.043l.018.07v.002l.01-.004.06-.02c.026-.008.052-.018.076-.027.012-.003.023-.008.035-.013.004 0 .007-.002.01-.003.013-.005.025-.012.038-.018l.003-.002.034-.018c.003 0 .006-.002.008-.004l.034-.02c.03-.022.057-.045.08-.073l.004-.007.006-.01c.02-.028.03-.063.032-.1zM10.487 4.315c-.002-.014-.005-.028-.01-.042l-.006-.016-.024-.075-.07.038-.072.04c-.003 0-.006.002-.01.004l-.013.007c0 .002-.002.003-.005.004l-.035.02c-.003 0-.006.003-.008.004l-.036.02-.03.018c-.002 0-.004.002-.006.004l-.052.03c-.006.005-.012.01-.017.012l-.002.002-.02.016-.006.007-.01.012c-.004.002-.006.004-.008.007-.003.004-.006.007-.008.012-.003 0-.004.004-.006.008l-.007.01c-.002.004-.004.007-.004.01l-.007.01c0 .004-.002.007-.003.01.002.005 0 .008 0 .012-.002.003-.002.006-.003.01 0 .003 0 .006-.002.01v.014c0 .003-.002.006 0 .01 0 .023.003.042.008.057l.02.063h.002l.01-.002.054-.017.083-.03c.012-.003.024-.008.036-.013.003 0 .005-.002.01-.004l.04-.018c.002 0 .003 0 .005-.002.012-.006.023-.01.035-.017l.01-.006.035-.02c.024-.016.046-.033.065-.052l.028-.03c.02-.028.037-.062.04-.1v-.017-.02zM11.286 4.335c0-.008 0-.017-.002-.025-.002-.013-.005-.025-.01-.038V4.27l-.013-.026-.03-.06-.06.032-.017.01-.042.022-.04.022-.04.023c-.003 0-.005.002-.007.003l-.038.022c-.053.03-.088.05-.106.064h-.002c-.023.018-.04.038-.055.058v.002c-.005.006-.01.012-.012.02v.004c-.004.005-.007.01-.008.015 0 .003-.002.006-.003.008l-.005.012c0 .003 0 .006-.002.01v.01c-.002.003-.002.006-.002.01v.011c0 .027.006.05.01.063h.002l.02.06.01-.002.053-.016.084-.028.04-.015s.004 0 .007-.002l.043-.02h.004l.037-.018c.004 0 .006-.003.01-.004l.037-.02c.037-.024.07-.05.095-.082.01-.014.02-.03.028-.046.01-.023.015-.047.016-.073zM.677 4.206l.007-.003c.113-.06.23-.12.307-.15.062-.023.13-.04.2-.04.114 0 .24.05.317.17.102-.054.203-.103.272-.13.06-.024.127-.04.198-.04.07 0 .146.017.21.06.047.03.088.072.12.128l.034-.02c.1-.052.2-.102.27-.128.06-.022.127-.038.198-.038.07 0 .142.016.205.056.047.028.087.07.118.122l.007-.004c.105-.055.21-.107.28-.134.06-.024.13-.04.197-.04.07 0 .14.015.204.054.047.027.086.067.118.12.104-.056.208-.107.28-.135.06-.024.127-.04.197-.04.115 0 .243.05.318.17h.002c.102-.055.2-.104.27-.13.062-.024.13-.04.2-.04s.145.017.21.06c.047.03.088.072.118.128l.035-.02c.102-.05.203-.1.27-.127.06-.023.13-.038.2-.038.068 0 .14.015.204.055.046.028.087.07.117.122l.01-.006c.105-.054.208-.106.277-.132.06-.024.128-.04.198-.04s.145.017.21.06c.048.03.09.073.12.13l.008-.004c.113-.06.23-.117.305-.146.06-.024.128-.04.198-.04.115-.002.242.048.318.17l.002-.002c.1-.053.2-.103.27-.128.06-.024.13-.04.2-.04s.144.017.21.058c.045.03.086.074.117.13.112-.06.23-.12.305-.15.06-.022.128-.037.2-.037.068 0 .14.016.205.056.046.028.086.07.117.122.107-.057.215-.11.287-.14.06-.022.13-.038.198-.038s.14.015.204.054c.045.027.085.067.116.12.104-.056.21-.108.278-.135.06-.024.128-.04.198-.04.115-.002.242.048.317.17.102-.055.202-.105.27-.13.062-.025.13-.04.2-.04s.146.016.21.058c.05.032.09.076.12.13.113-.06.23-.117.306-.146.06-.024.128-.04.198-.04.068 0 .142.016.206.056.045.028.086.07.117.122.107-.057.215-.11.287-.14.06-.022.128-.038.198-.038s.142.016.206.056c.047.03.088.07.12.126h.002l.057-.028.1-.055v-.1H.387c.056.006.11.023.162.055s.094.078.127.138z" fill="currentColor"/><path d="M2.188 4.072c-.064-.042-.14-.058-.21-.058s-.14.015-.2.04c-.067.025-.165.073-.264.126l.028.07.01.024.007.033c.103-.055.207-.107.268-.13.047-.018.1-.03.15-.03.052 0 .1.012.138.038.027.018.053.043.073.08l-.03.015c.016-.008.03-.017.048-.025l.023-.013.012-.006.064-.035c-.03-.054-.072-.098-.118-.128zM3.015 4.07c-.064-.04-.136-.055-.205-.055-.07 0-.14.015-.198.04-.07.025-.208.094-.308.147h.003l.013.027.02.055c.006.017.008.034.008.05V4.332c.117-.06.242-.125.31-.152.048-.018.1-.03.15-.03.05 0 .097.012.136.036.027.016.05.04.07.07l-.017.01.074-.04.018-.008.04-.022.005-.003c-.03-.05-.07-.092-.118-.12zM1.904 4.584C1.9 4.572 1.9 4.56 1.9 4.544V4.52c-.028.008-.336.09-.444.133-.038.015-.068.02-.094.02-.057 0-.09-.024-.118-.052L1.24 4.62c.003 0 .005-.002.007-.003l-.086.03-.053.016c.01.015.022.032.04.05.04.046.113.095.214.095h.002c.044 0 .092-.01.144-.03.093-.037.258-.073.416-.122l-.018-.072zM8.402 4.583c-.003-.012-.005-.025-.005-.04v-.02c-.032.008-.335.09-.443.132-.037.015-.068.02-.094.02-.057 0-.09-.024-.118-.052L7.74 4.62l.004-.002-.084.03-.055.016c.01.015.022.032.04.05.042.046.115.095.214.095.045 0 .093-.01.145-.03.093-.038.258-.076.415-.125l-.017-.07v-.002zM9.19 4.534c-.145.043-.3.08-.403.12-.038.016-.068.02-.094.02-.057 0-.092-.023-.118-.05-.005-.007-.01-.012-.013-.018.002 0 .003 0 .004-.002-.024.01-.05.02-.075.028l-.058.02c.01.017.024.04.045.062.027.03.066.06.117.078.028.01.062.018.1.018.044 0 .092-.01.144-.03.09-.037.252-.075.406-.123-.01-.016-.016-.028-.018-.034-.002-.005-.007-.015-.01-.028l-.01-.067-.016.006zM9.207 4.532l.007.064.012.028c.003.006.008.02.018.034.01.017.022.036.042.056.042.046.115.095.215.095h.002c.045 0 .093-.01.144-.03.088-.035.24-.072.388-.117l-.02-.062c-.006-.014-.01-.034-.01-.058v-.01c-.03.01-.31.084-.407.123-.038.015-.07.02-.095.02-.057 0-.092-.024-.117-.052l-.01-.01c.065-.024.124-.05.175-.083.034-.022.065-.047.09-.08.023-.03.04-.07.04-.114v-.018c.11-.06.223-.115.287-.14.046-.018.1-.03.15-.03.048 0 .094.012.133.035.025.016.05.037.068.068l-.023.014c.003 0 .006-.003.01-.005.02-.013.044-.025.068-.038l.003-.002c.02-.01.04-.02.062-.033-.032-.05-.072-.09-.118-.12-.063-.038-.135-.053-.203-.053-.07 0-.138.015-.198.04-.073.027-.18.08-.288.138-.022.01-.042.022-.063.034l-.058.03H9.51l-.115.066c-.05.028-.082.048-.1.06-.06.043-.084.1-.088.147v.002zM10.803 4.605c-.006-.015-.01-.036-.01-.062v-.006c-.024.006-.3.08-.4.12-.037.014-.067.02-.093.02-.057 0-.092-.025-.117-.053l-.006-.005c0-.002.003-.002.006-.003l-.084.03-.056.017c.01.015.022.033.04.052.04.046.114.095.215.095.044 0 .092-.008.143-.028.087-.035.235-.07.382-.114l-.022-.063zM11.626 4.573V4.52c-.154.048-.332.09-.444.134-.038.015-.068.02-.094.02-.057 0-.092-.024-.118-.052l-.003-.003.004-.002c-.026.01-.055.02-.083.028l-.054.017c.01.015.02.033.04.05.04.046.114.096.214.096h.002c.043 0 .09-.01.142-.03.095-.04.267-.08.427-.128-.01-.013-.013-.023-.016-.028-.004-.008-.013-.03-.018-.05zM12.032 4.2c-.03-.055-.072-.098-.12-.128-.063-.042-.14-.058-.21-.058s-.138.015-.198.04c-.07.025-.17.075-.272.13l.03.058.013.026v.002c.006.013.008.025.01.038v-.002c.104-.055.208-.106.268-.13.048-.018.1-.03.15-.03s.1.012.14.038c.024.017.053.046.072.08l.044-.023.072-.04z" fill="currentColor"/><path d="M12.44 4.594l-.005-.066c-.147.044-.315.085-.422.127-.038.015-.07.02-.094.02-.058 0-.092-.024-.118-.052-.006-.005-.01-.01-.014-.016.06-.023.116-.05.163-.082.034-.022.063-.047.085-.078.022-.03.038-.07.038-.11V4.33c.117-.062.242-.125.31-.15.048-.02.1-.03.15-.03.05 0 .097.013.135.034.036.02.066.066.07.072l.01-.006.048-.025.062-.033h.002c-.03-.048-.077-.096-.12-.122-.063-.04-.137-.056-.206-.055-.07 0-.138.015-.197.04-.077.028-.193.087-.306.146-.02.013-.053.03-.072.04l-.044.024h-.002l-.107.06c-.045.027-.074.045-.092.058-.052.037-.078.086-.086.13v.06c.004.02.013.043.017.05.002.005.007.016.015.028.01.018.023.04.045.062.042.046.114.095.215.095.045 0 .093-.01.145-.03.092-.036.253-.074.407-.12l-.02-.037c-.003-.004-.008-.013-.01-.026z" fill="currentColor"/><path d="M13.55 4.256c-.02-.033-.045-.056-.07-.072-.04-.024-.086-.035-.136-.035s-.104.01-.15.028c-.064.025-.18.082-.288.14v.018c0 .043-.016.083-.04.114-.023.032-.055.058-.09.08-.05.032-.11.06-.173.083l.008.01c.027.027.063.05.12.05.024 0 .055-.004.093-.02.108-.042.27-.08.422-.125v.01l.007.056c.004.013.008.023.012.03l.018.032c-.155.047-.317.085-.41.123-.05.02-.098.028-.142.028h-.002c-.1 0-.173-.05-.215-.095-.02-.02-.032-.04-.043-.056l-.02-.036c0-.005-.005-.014-.01-.028l-.005-.065V4.52c.006-.045.032-.1.087-.138.02-.013.05-.033.1-.06.034-.02.074-.043.118-.066l.01-.006.048-.025.062-.033h.002c.106-.057.214-.11.285-.138.06-.024.128-.04.198-.04s.142.016.206.057c.048.03.09.072.12.127-.023.01-.046.02-.063.03l-.05.027-.008.002z"
    fill="currentColor"/>
  </symbol>
  <symbol id="harvard-vcg" viewBox="0 0 16 16">
    <path
      d="M15.993 8.005C16.008 12.32 12.533 15.998 8 16 3.516 16-.01 12.367.007 7.968.022 3.568 3.6-.052 8.1 0c4.436.052 7.916 3.685 7.893 8.005zM7.99 15.442c4.05.037 7.376-3.253 7.458-7.268.088-4.194-3.246-7.63-7.443-7.63C3.872.55.565 3.853.555 7.99c-.012 4.168 3.388 7.48 7.434 7.452z"
      fill="currentColor"/>
    <path
      d="M12.646 7.565c-.336.056-.673.107-1.01.167-1.04.186-2.063.432-3.076.73-.05.017-.11.05-.15.012-.054-.052.007-.108.028-.157.573-1.48 1.05-2.993 1.42-4.535.155-.646.294-1.295.402-1.952.024-.146.08-.157.195-.11.665.268 1.28.618 1.832 1.077.97.812 1.675 1.81 2.087 3.007.352 1.022.443 2.07.297 3.14-.186 1.356-.76 2.533-1.652 3.564-.117.136-.23.2-.43.188-1.655-.09-3.23-.498-4.74-1.17-.197-.086-.39-.185-.586-.273-.09-.042-.104-.093-.06-.18.37-.728.705-1.47 1.015-2.227.033-.08.096-.11.17-.137 1.358-.507 2.744-.905 4.187-1.09.027-.003.052-.016.08-.023l-.008-.032zM8.082 1.256c.124-.017.307.044.494.04.1 0 .126.055.116.15-.09.838-.205 1.675-.348 2.507-.266 1.555-.607 3.098-.967 4.635-.047.2-.14.3-.333.365-.667.232-1.326.482-1.973.764-.1.046-.18.038-.27-.034-1.184-.965-2.153-2.11-2.92-3.43-.266-.453-.28-.458-.048-.955C2.756 3.303 4.28 2.016 6.41 1.46c.526-.138 1.066-.182 1.672-.204zM11.368 13.83c-.435.27-.896.46-1.375.608-.684.215-1.386.32-2.1.306-.8-.017-1.575-.165-2.322-.456-.128-.05-.153-.1-.072-.226.433-.67.848-1.353 1.22-2.062.052-.1.097-.14.21-.067 1.338.845 2.78 1.443 4.315 1.82.04.013.082.017.125.076zM4.807 10.37c.07.002.105.043.143.078.405.37.835.71 1.284 1.022.085.062.112.11.065.215-.35.772-.745 1.516-1.18 2.24-.06.104-.123.116-.227.06-.938-.505-1.73-1.177-2.356-2.042-.084-.115-.07-.173.044-.248.696-.447 1.402-.877 2.126-1.28.035-.02.073-.033.1-.045zM1.268 8.063c-.005-.68.082-1.283.248-1.875.016-.058.012-.15.085-.157.062-.004.074.083.098.133C2.363 7.54 3.243 8.766 4.32 9.85c.098.096.103.15-.03.21-.72.32-1.424.672-2.115 1.048-.103.056-.147.008-.19-.074-.29-.576-.498-1.182-.61-1.817-.07-.403-.12-.807-.107-1.154zM7.13 9.228c.09.015.05.077.037.118-.057.196-.114.39-.18.584-.093.27-.196.535-.29.804-.05.148-.112.17-.25.083-.33-.207-.666-.407-.982-.637-.074-.054-.122-.104-.007-.16.53-.268 1.057-.538 1.604-.77l.067-.022z"
      fill="currentColor"/>
  </symbol>
  <symbol id="edinburgh" viewBox="0 0 250 250" fill-rule="evenodd" clip-rule="evenodd" stroke-linejoin="round" stroke-miterlimit="2">
    <path d="M123.332.002c2.252.021 4.51.198 6.634.343l2.951.052c.512.068 1.019.132 1.52.202.718.016 1.454.04 2.163.057 1.886.224 3.888.546 5.69.92 1.07.155 2.157.294 3.238.449 1.669.282 3.383.748 5.017 1.127 2.55.57 5.011.95 7.48 1.67 1.12.327 2.278.782 3.4 1.12 2.359.726 4.752 1.318 7.036 2.147.736.322 1.461.656 2.192.978.455.167.926.322 1.386.489.587.333 1.19.662 1.784.99 1.22.477 2.45.886 3.636 1.461 1.444.725 2.894 1.455 4.355 2.192.828.529 1.674 1.059 2.514 1.582 2.307 1.197 4.689 2.226 6.91 3.584.68.478 1.352.955 2.025 1.433.506.311 1.001.622 1.508.92.673.559 1.265 1.1 1.967 1.588l2.79 2.025c.726.478 1.502.858 2.215 1.393 1.083.955 2.169 1.893 3.24 2.842 1.058.806 2.111 1.616 3.152 2.428.76.765 1.508 1.53 2.267 2.29.789.736 1.566 1.478 2.353 2.214.904.973 1.715 1.985 2.589 2.97.328.321.679.626 1.019.943.575.615 1.144 1.243 1.708 1.863.392.472.61.973.979 1.445.649.817 1.455 1.427 2.18 2.163.759.984 1.52 1.968 2.284 2.952.685.794 1.369 1.581 2.054 2.387 1.812 2.652 3.618 5.304 5.356 8.01.466.994.938 1.984 1.398 2.979.604.92 1.226 1.726 1.743 2.681.834 1.548 1.358 3.273 2.112 4.867.31.524.604 1.036.915 1.565.92 1.818 1.806 3.59 2.594 5.5.38.91.909 1.76 1.26 2.681 2.423 6.42 4.338 13.175 5.788 20.05.524 2.503.725 5.098 1.013 7.727.259 2.48.846 4.977.994 7.525.272 4.868.185 10.212-.16 15.13.012.755.035 1.526.035 2.286-.03.575-.197 1.087-.254 1.628-.07 1.087-.121 2.18-.184 3.267-.104.512-.196 1.024-.3 1.525a272.245 272.245 0 01-.304 3.906c-.219 1.611-.536 3.32-.806 4.908-.109.978-.212 1.956-.327 2.928-.374 1.9-.875 3.81-1.272 5.668-.11.598-.213 1.214-.322 1.811-1.467 5.07-3.256 9.988-5.086 14.896-.54 1.14-1.07 2.284-1.616 3.417-.484 1.094-.812 2.226-1.33 3.314-.62 1.07-1.248 2.135-1.875 3.205a126.264 126.264 0 01-2.296 4.13c-.23.478-.449.968-.684 1.45-.259.363-.524.749-.783 1.128-.333.581-.541 1.168-.892 1.732-1.179 1.663-2.37 3.313-3.556 4.964-.39.415-.77.818-1.15 1.226a309.83 309.83 0 01-2.174 3.084c-1.1 1.318-2.21 2.647-3.314 3.958-1.364 1.75-2.83 3.47-4.459 5.023-.46.558-.92 1.11-1.376 1.68-.655.748-1.397 1.42-2.116 2.122-.334.334-.536.709-.91 1.048-.892.788-1.852 1.507-2.721 2.295-.874.777-1.501 1.67-2.336 2.44-1.04.966-2.174 1.973-3.29 2.819-.3.178-.604.35-.91.507-.275.27-.54.54-.817.794-1.31.942-2.605 1.903-3.911 2.847-1.26.863-2.37 1.898-3.585 2.802a527.267 527.267 0 01-4.08 2.485c-1.592.99-3.112 2.152-4.774 3.01-.576.298-1.208.471-1.784.759-1.122.638-2.243 1.265-3.366 1.91-.96.5-1.996.967-2.979 1.438-.265.15-.524.322-.789.478-.909.42-1.87.862-2.825 1.225-.978.471-1.962.921-2.934 1.398-1.663.576-3.302 1.163-4.954 1.732-.805.242-1.536.328-2.352.552-.478.173-.955.34-1.427.512-1.122.34-2.232.662-3.36.99-.673.276-1.306.633-2.02.84-1.369.276-2.738.563-4.12.834-1.087.293-2.185.581-3.29.869-3.261.65-6.524 1.024-9.901 1.329-.91.08-1.91.235-2.836.35-.679.024-1.37.047-2.054.082-1.513.218-3.061.534-4.69.448-.793-.04-1.57.023-2.398 0-1.294-.058-2.83-.201-4.131-.213-.432.047-.874.104-1.311.155-.726-.035-1.451-.057-2.175-.098-1.421-.212-2.826-.425-4.24-.638l-1.859-.063c-.575-.093-1.157-.178-1.744-.27-.914-.058-1.806-.127-2.709-.173-1.19-.11-2.342-.38-3.486-.53a96.941 96.941 0 01-2.601-.201c-2.36-.368-4.775-1.082-7.088-1.56-1.553-.31-3.1-.603-4.655-.908-1.288-.35-2.507-.921-3.74-1.403-.39-.11-.77-.225-1.156-.34-1.426-.553-2.847-1.1-4.28-1.652-.523-.143-1.059-.305-1.594-.448-1.455-.559-2.9-1.123-4.355-1.692-1.593-.54-3.003-1.456-4.482-2.168-3.37-1.618-6.61-3.31-9.826-5.282-.852-.524-1.801-.95-2.63-1.496-.856-.593-1.691-1.191-2.549-1.795-.718-.477-1.53-.708-2.288-1.145-1.14-.65-2.164-1.524-3.258-2.273-.909-.639-1.628-1.473-2.467-2.197-.679-.512-1.358-1.042-2.048-1.566l-2.82-2.715c-.971-.926-2.145-1.553-3.146-2.427-.61-.616-1.231-1.231-1.842-1.859a103.36 103.36 0 00-3.619-3.457c-.874-.806-1.524-1.841-2.283-2.716-.921-.967-1.842-1.933-2.768-2.894-.73-.932-1.467-1.87-2.203-2.802a354.292 354.292 0 01-2.682-3.187c-.477-.69-.949-1.386-1.42-2.083-.616-.851-1.347-1.611-2.003-2.427-.488-.617-.885-1.301-1.363-1.917-.8-1.024-1.57-2.1-2.204-3.204-.259-.564-.512-1.122-.764-1.674-.237-.294-.472-.57-.703-.863a77.758 77.758 0 01-.587-1.439c-.673-1.334-1.472-2.606-2.151-3.935-.863-1.634-1.91-3.159-2.63-4.85-.281-.644-.42-1.386-.69-2.048-.46-.984-.927-2.002-1.392-2.991-.938-2.647-1.882-5.294-2.825-7.946-.132-.564-.276-1.133-.408-1.703a93.523 93.523 0 00-.633-1.64c-.72-2.398-1.283-4.815-1.812-7.312-.225-.81-.444-1.616-.679-2.417-.495-3.17-1.03-6.397-1.358-9.579-.053-1.024-.098-2.03-.156-3.044-.207-2.329-.673-4.717-.742-7.087-.126-4.947-.27-9.81-.08-14.918.08-.823.155-1.663.23-2.497.298-.996.258-2.21.351-3.268.115-1.364.586-2.865.753-4.246.103-1.191.208-2.382.317-3.573a182.544 182.544 0 014.66-18.266c.368-.955.742-1.905 1.104-2.865.3-.892.604-1.778.904-2.67.374-.771.736-1.548 1.11-2.313.311-.76.622-1.507.927-2.261.672-1.156 1.202-2.33 1.835-3.498.305-.507.598-.995.903-1.507.284-.566.528-1.15.767-1.736l.204-.503c.238-.587.482-1.17.766-1.736.754-1.238 1.496-2.48 2.245-3.717.252-.512.5-1.024.754-1.536.862-1.56 2.11-3.406 3.215-4.833.771-1.203 1.537-2.4 2.313-3.596 1.116-1.577 2.388-3.015 3.687-4.482.306-.409.628-.834.927-1.248.673-.834 1.415-1.548 2.164-2.302.85-.885 1.478-1.973 2.364-2.877l1.686-1.564c.414-.494.839-.978 1.266-1.467 1.236-1.116 2.473-2.238 3.71-3.354 2.008-1.985 4.044-4.04 6.214-5.87 1.053-.896 2.197-1.58 3.29-2.386.581-.524 1.18-1.053 1.76-1.583l3.378-2.41c3.808-3.101 8.066-5.494 12.364-7.675.61-.385 1.22-.765 1.824-1.162 3.59-1.87 7.249-3.653 10.988-5.23.686-.293 1.387-.581 2.077-.875 1.002-.448 2.071-1.15 3.286-1.144.547-.368 1.31-.38 1.921-.616 1.041-.403 2.094-1.104 3.308-1.099.593-.35 1.421-.535 2.175-.529.794-.483 1.898-.587 2.825-.8 1.737-.42 3.331-1.236 5.253-1.22.569-.338 1.553-.436 2.29-.425.253-.04.505-.075.765-.103.903-.495 2.634-.645 3.808-.639.426-.225.99-.207 1.525-.207.258-.03.512-.063.759-.103.357-.139.782-.105 1.197-.105.437-.052.869-.097 1.3-.16.443-.104.88-.214 1.329-.317a327 327 0 002.492-.063c.327-.052.655-.098.977-.156 1.203-.005 2.405-.005 3.596-.005 1.001.005 2.26.16 3.16-.098l.217.002zm71.698 220.532c-6.686 5.028-20.586 5.558-29.428 6.64-2.267.287-4.534.58-6.807.862-11.035.53-25.568 1.554-29.537 12.888-.402 1.225-.362 1.478-.776 2.698-.185 1.081 4.924.057 7.266.057.673-.339 1.778-.265 2.612-.265l1.564-.258c1.301-.72 3.31-.788 4.954-.794 1.094-.546 2.572-.518 3.918-.518 1.427-.788 4.93-1.317 6.772-1.317 3.119-1.07 6.243-2.14 9.349-3.223 8.843-3.584 18.232-7.19 25.786-13.243 1.116-.892 2.532-1.186 4.327-3.527zm-137.451 2.22c1.961 2.36 4.745 2.906 7.185 4.563 1.392 1.03 3.43 2.088 4.804 3.1 5.35 2.567 9.39 4.66 14.843 6.474 6.007 1.996 11.881 3.889 18.341 5.068 2.182.403 17.071 3.106 17.629 1.715.892-2.262-3.958-7.78-5.65-9.212-1.57-1.334-3.48-2.18-5.212-3.13-1.658-.914-3.625-1.443-5.46-1.938-2.428-.673-4.781-1.45-7.365-1.88-2.479-.427-4.924-.444-7.536-.691-2.278-.364-4.54-.737-6.812-1.106-2.945-.397-5.897-.356-8.837-.719-5.39-.679-10.43-1.915-15.93-2.243zm65.512 16.553h-.115v-.115c-.167 0-.242-.207-.345-.328-.415-.667-.84-1.341-1.261-2.014-.88-1.024-1.766-2.054-2.646-3.095-2.641-2.509-5.736-4.66-8.975-6.058-.674-.242-1.358-.5-2.02-.742-.747-.322-1.426-.748-2.208-1.036-.72-.27-1.508-.357-2.273-.494-.783-.15-1.582-.375-2.394-.547-1.663-.34-3.33-.84-5.022-1.14-1.628-.206-3.251-.403-4.885-.615-1.3-.063-2.549-.04-3.802-.161-5.903-.599-11.732-1.168-17.427-2.089-1.945-.322-3.85-.333-5.748-.672-1.893-.335-3.786-.887-5.58-1.45-1.001-.317-2.02-.547-2.98-.915l-2.843-1.278a206.3 206.3 0 00-1.962-.88c-.454-.287-.914-.586-1.369-.88-.219-.121-.437-.236-.656-.357-1.56-1.249-2.785-2.98-3.981-4.493-.92-1.174-1.404-2.543-1.841-3.958-.207-.697-.426-1.398-.644-2.1-.69-3.257-.622-6.663-.656-10.224-.052-.696-.115-1.375-.173-2.077.092-2.647.253-5.327.31-7.945-.022-.581-.04-1.157-.068-1.737.017-2.647.035-5.293.046-7.945.017-1.744.149-3.464.132-5.115-.075-7.134.057-14.355.213-21.564-.058-1.012-.11-2.025-.173-3.049-.005-1.127.115-2.186.115-3.256-.017-.507-.028-1.019-.046-1.53.144-1.623.276-3.263.408-4.896.03-1.266-.08-2.509-.08-3.695.012-.897.144-1.794.104-2.727-.029-.747-.202-1.454-.184-2.289.034-.678.08-1.375.109-2.071-.017-1.38-.104-2.889-.075-4.35.018-.84.133-1.726.115-2.617-.022-.96-.212-1.922-.184-2.934.11-1.197.219-2.394.334-3.59.028-1.168-.075-2.29-.069-3.383.017-2.44.127-5.08.138-7.618.017-.512.04-1.012.052-1.518-.041-1.094-.11-2.181-.161-3.269.086-.943.161-1.892.258-2.836.092-4.528.082-9.188.179-13.612.006-1.52.006-3.037.011-4.563-.04-1.076-.201-2.122-.178-3.273.046-.719.08-1.456.127-2.175.016-3.82-.069-7.646-.047-11.54.006-1.41.127-2.676.122-4.034-.024-1.524-.08-3.175-.075-4.786.005-1.041.115-2.066.126-3.16.006-.862-.167-2.076.12-2.824.007-.218.26-.178.438-.201 1.57-.219 3.544-.426 5.224-.162 2.071.317 4.154-.017 6.323-.005 1.916.012 3.843.012 5.77.017 1.163-.064 2.313-.12 3.482-.184 2.168.012 4.188.138 6.305.127 2.555-.023 5.31-.064 7.968-.047.754.035 1.507.07 2.284.099 1.07-.059 2.169-.104 3.256-.162.91.018 1.761.207 2.722.207 1.225.012 2.33-.104 3.48-.069 1.79.029 3.711.04 5.558.144.869.075 1.738.133 2.606.202 2.566-.029 5.224-.132 7.738-.162 1.71.052 3.413.093 5.12.145 1.445-.018 2.871-.3 4.344-.289 1.042.007 2.181.104 3.269.11.99-.018 1.962-.035 2.946-.046 1.12.092 2.248.173 3.37.27.875-.04 1.75-.086 2.618-.127 1.703.07 3.406.127 5.115.19.8-.063 1.6-.12 2.399-.19 4.643-.115 9.022-.005 13.716-.045 1.024-.058 2.03-.127 3.055-.185 2.088-.057 4.297.087 6.305-.057.444-.04.875-.086 1.312-.126 1.744.178 3.785-.006 5.662.04.776.006 1.414.195 2.168.218.84-.035 1.68-.052 2.503-.08 1.346.045 2.894.207 4.246.195.944-.005 1.853-.19 2.842-.16.69.057 1.376.125 2.066.189.966.011 2.053-.12 3.05-.04.683.103 1.374.201 2.07.305.575-.023 1.157-.052 1.744-.075.609.035 1.219.07 1.851.098.61-.017 1.226-.058 1.842-.087 1.167-.016 2.283.116 3.377.047 1.772-.138 3.515.127 5.333.109l2.612-.172 1.743.086c.552.005 1.231-.063 1.686.12.04.029.087.075.132.099.385.575.248 1.633.237 2.415-.012 2.48-.133 4.89-.024 7.284.057 1.52.035 3.256.052 4.799-.028.5-.052 1.012-.08 1.513.04 1.099.085 2.174.127 3.262-.064 1.099-.122 2.186-.185 3.28.086 1.414.185 2.83.265 4.244a228.81 228.81 0 01-.185 1.635c-.034.944.156 1.806.145 2.722-.052.942-.115 1.886-.174 2.83a224.29 224.29 0 01-.051 3.475c-.052.869-.127 1.75-.184 2.612.104 1.42.207 2.836.294 4.246-.035.512-.087 1.024-.133 1.53-.04 1.174-.132 2.359-.116 3.486.024 2.015.19 4.258.214 6.203-.052.437-.109.869-.144 1.311.029.904.069 1.801.104 2.71-.058 1.048-.15 2.232-.162 3.388 0 .84.185 1.566.162 2.394-.058.437-.104.875-.174 1.306.03.57.052 1.157.07 1.732-.058 2.186-.253 4.297-.225 6.54.035 1.088.058 2.176.11 3.27.052.437.104.867.16 1.306-.022.73-.063 1.443-.091 2.173.023.467.051.944.07 1.41l-.19 2.4c0 1.08.27 2.226.223 3.377-.115 3.181-.287 6.185-.31 9.366-.006 1.283.195 2.417.19 3.7l-.207 2.064c-.012 1.485-.03 2.976-.052 4.465-.07.8-.138 1.593-.213 2.394.04 3.014.086 6.023.127 9.032-.012 2.1-.225 4.321-.202 6.427.046 1.122.11 2.25.155 3.382-.022.437-.052.87-.08 1.306-.005.8-.012 1.588-.023 2.394-.012 1.944.086 3.9.08 5.77-.017 2.25.006 4.69-.046 7.071-.034.656-.058 1.3-.08 1.956.04.403.097.794.15 1.197-.07 1.387-.144 2.762-.202 4.136-.03 1.168.138 2.394.058 3.59-.132.732-.27 1.462-.391 2.193-.105.787-.202 1.581-.305 2.37-.27 1.358-1.26 3.296-1.974 4.453-.627.99-1.662 1.536-2.456 2.33-.484.466-1.024.776-1.52 1.197-.932.794-1.858 1.634-2.91 2.191-.674.254-1.341.5-2.014.749-1.357.557-2.716 1.168-4.108 1.697-1.283.478-2.635.84-3.912 1.317-.3.115-.64.237-.961.34-.702-.011-1.64.31-2.18.644-.61-.005-1.25.063-1.744.31-.92-.005-1.582.266-2.336.547-.235.07-.472.139-.713.202-.374 0-.8.045-1.093.212-.731-.011-2.41.329-2.94.64-.65 0-1.42-.121-1.962.097-.374 0-.805.04-1.093.212-.587-.01-1.278-.073-1.749.197-.276.04-.581.08-.868.115-.46 0-.95.017-1.301.207-.409 0-.88.045-1.203.212-.759-.01-1.893-.126-2.508.213-.294.024-.58.058-.874.092-.731-.005-1.652-.275-2.284.098-.437 0-.95-.063-1.312.099-.219.045-.431.073-.644.103-.702 0-1.588-.133-2.18.097-.294.04-.582.075-.876.11-.218.028-.43.069-.65.097a9.855 9.855 0 01-.65.11c-.328.035-.661.063-.983.11-.456-.012-.95.01-1.313.207-.292.023-.574.068-.868.103-.49 0-1.047-.018-1.415.207-.472 0-.961.005-1.306.213-.38 0-.811.046-1.093.207-.345 0-.714.052-.984.219-.213.028-.432.068-.65.109-.558-.012-1.3.161-1.744.42-.362 0-.713.051-.989.218-1.14-.011-2.123.507-3.09.88-.741.277-1.49.548-2.244.823-1.46-.005-3.009 1.346-4.085 2.238-.942.771-2.156 1.157-3.083 2.025-2.583 2.4-4.142 5.621-5.425 8.74zm87.64-195.537c-.37 4.604.39 11.738.328 16.576-.168 10.425-.208 20.786-.202 31.58.017 17.616.023 33.604.04 50.61.005 9.517-.477 19.01-.006 28.68-.034 3.919-.063 7.837-.104 11.75.007 7.19.835 14.71-.679 21.626-.097.42-1.029 3.51-.287 3.51 2.462 0 13.774-16.328 15.355-18.935 1.14-2.083 2.279-4.16 3.418-6.236.622-1.416 1.254-2.83 1.881-4.252 2.199-3.901 4.718-8.635 6.185-12.922 3.096-9.055 4.954-18.364 6.248-28.34.432-3.274.299-6.438.357-9.896.08-1.824.16-3.654.236-5.472-.156-9.768-1.3-20.1-3.82-28.794-2.497-8.578-6.38-16.933-10.662-24.67-1.496-2.693-3.354-5.173-5.01-7.802-2.239-3.51-11.812-18.112-13.279-17.013zm-172.058-.73c-1.675 1.71-4.16 4.194-5.833 5.897-3.481 4.684-6.95 9.361-10.426 14.044-7.312 12.323-11.771 25.142-14.924 39.52-.512 2.295-.5 4.573-.725 7.007-1.121 11.845-1.45 25.164.444 36.843l1.547 5.776c.587 3.194 1.058 6.133 2.049 9.097 1.012 2.462 2.013 4.907 3.014 7.358 1.197 3.607 3.027 6.846 4.74 10.177 4.068 7.917 8.775 15.442 14.51 22.594.835 1.036 2.923 3.94 4.408 3.94v-.259c1.156-2.186.35-8.808.27-11.489-.012-4.516-.029-9.026-.035-13.555 0-4.038-.16-8.307.035-12.518.414-8.993.057-18.307.195-27.403.11-7.687.507-15.603.5-23.468-.01-7.392-.442-15.505.185-22.667-.058-.8-.115-1.588-.178-2.394l-.018-6.772.38-9.365c-.207-6.72-.161-13.55-.385-20.379-.167-4.792.432-9.406.247-11.984zM115.56 5.926c-1.646.195-3.302.397-4.954.592-1.432.23-2.837.477-4.39.536-3.377.65-6.765 1.294-10.142 1.944-4.753.973-9.258 2.974-13.619 4.776-8.17 3.37-15.867 7.282-23.283 12.173-1.755 1.15-14.01 9.74-14.01 11.075 1.997.161 4.005.322 5.995.478 4.81.282 9.833.097 14.62.097 2.95.144 5.903.3 8.865.449 1.163-.546 3.02-.264 4.437-.264 4.038-.006 7.881.252 11.736.247 1.985-.834 5.189-.103 7.3-.028 6.519 0 13.044 0 19.562.005 7.307.167 14.613.328 21.92.495 13.474-.185 26.954-.368 40.428-.547 1.007-.368 2.502-.011 3.66-.011 2.341.058 4.693.131 7.03.195 1.22-.057 2.433-.115 3.659-.178 2.289.063 4.827.293 7.294.219.542-.023 2.072.086 2.624.086 1.658 0-1.323-2.364-1.835-2.94-1.703-1.916-3.59-3.245-5.604-4.58-1.203-.949-2.405-1.904-3.613-2.854-2.457-1.644-4.925-3.284-7.387-4.935-15.407-9.297-30.285-14.792-49.432-16.685-2.779-.058-5.546-.11-8.336-.167-4.04-.063-8.406-.184-12.525-.178z" fill="currentColor"/>
    <path d="M69.452 43.752c.552.003 1.146.11 1.589.145 2.037.133 3.935.253 5.995.265l.747-.133.931.021c.649.046 1.32.132 1.808.135l.84-.154 1.035.024c.716.055 1.442.164 1.94.199l4.678-.023c.235-.107.552-.132.882-.131l.97.034c1.23.011 2.463.011 3.699.016l1.256-.15c.469.011.954.055 1.356.059l.627-.108c.227-.007.464.004.679.004 1.37.012 2.508.23 3.81.242l.999-.131c.366.002.743.033 1.065.033l.76-.085.77.078c.725.007 1.444.018 2.175.03l.983-.164 1.265.04c.88.07 1.77.199 2.326.24.805.01 1.594.016 2.393.033l.638-.073.668.056 2.503-.012 9.585.099.67-.183c.246-.028.507-.03.745-.03.219-.03.438-.064.65-.098.273-.109.61-.148.98-.146l1.188.103c.82.113 1.664.282 2.297.284l.984-.104c.258-.04.512-.068.77-.103.342-.138.817-.163 1.306-.152l1.41.055c2.25.017 4.505.04 6.743.045.892.029 1.68.225 2.612.23l.52-.107c.196-.009.4 0 .573.004l.835-.13c.311 0 .636.026.908.026 1.128 0 2.255.012 3.377.017l.87-.103c.261-.102.555-.146.866-.16l.968.026c.329.02.66.044.975.043l.89-.104c1.473.005 2.842.235 4.245.328.944.017 1.893.028 2.837.04l.869-.11c.966-.379 2.387.04 3.37.11 1.307.012 2.613.028 3.919.04l1.438-.07 1.611.093c2.543.017 5.074.029 7.617.052.731.092 1.462.184 2.18.27l1.525-.15c.165-.075.366-.1.576-.107l.621.004c1.41-.012 2.721.075 4.039.19 2.02.023 4.056.057 6.087.087l.66-.117c.139-.008.27-.006.369.012l.162.11h.12c-.016 2.088-.063 3.941-.04 5.99.024 1.996.173 4.245.104 6.31-.023 3.809-.046 7.623-.063 11.421-.265 6.956.006 13.686-.029 20.7.046.909.104 1.813.155 2.715.017 1.18-.201 2.262-.195 3.486.069.512.132 1.02.184 1.526.063 1.558.075 3.186.098 4.682-.058.98-.103 1.957-.15 2.94-.046.323-.11.651-.161.978-.023.61.178 1.094.161 1.738-.023.656-.202 1.18-.202 1.858-.016 2.975-.04 5.95-.051 8.924 0 .523.15.926.167 1.415-.064.546-.116 1.093-.179 1.634.063.477.115.944.173 1.416-.063.39-.121.804-.173 1.196l.035 1.196c-.063.789-.19 1.536-.19 2.394-.012 1.265.288 2.336.305 3.596.005.621-.138 1.185-.162 1.743.047.403.087.8.127 1.202.023.587-.092 1.209-.127 1.743.035.219.059.427.087.65.052.726.08 1.457.127 2.176-.155 6.811-.069 14.089-.214 20.907-.01 2.497-.022 5-.04 7.508l.075 2.06c-.108 2.819-.08 5.644-.132 8.498-.023.839-.236 1.45-.23 2.283.005.702.196 1.237.19 1.962 0 .679-.178 1.202-.19 1.853.046.322.08.65.12.977-.04.329-.074.656-.115.98.052.367.099.73.156 1.092.006.944.006 1.887.006 2.825.029.466.052.943.087 1.415-.047.874-.07 1.743-.116 2.617.029 2.457.08 5.035-.311 7.382-.034.552-.075 1.1-.115 1.635-.178 1.144-.701 2.57-1.265 3.537-1.284 2.169-3.527 3.545-5.587 4.833-1.15.725-2.186 1.519-3.43 2.083-1.42.65-2.893 1.11-4.418 1.605-1.806.581-3.618 1.306-5.482 1.852-.633.19-1.266.265-1.922.42-1.938.455-3.895.933-5.926 1.26-.42.035-.857.075-1.288.104-1.312.218-2.618.432-3.941.638-1.461.19-2.952.242-4.447.357-1.67.115-3.36.466-5.017.593-1.376.046-2.762.086-4.137.138-1.064.098-2.048.35-3.072.535-.634.046-1.283.087-1.928.132-2.617.547-5.149 1.231-7.761 1.795-1.398.305-2.79.552-4.113.95-.674.287-1.346.57-2.014.845-.558.196-1.099.397-1.669.587-3.59 1.91-7.116 4.401-9.498 7.888-.23.351-.448.696-.685 1.047-.149.184-.69.529-.69.719l-.175.01c-.035-.007-.05-.035-.05-.125-.466-.259-.655-.776-1.006-1.173-1.076-1.151-1.922-2.371-3.148-3.372-1-.816-2.082-1.358-3.175-1.985-.524-.362-1.07-.713-1.588-1.076-1.013-.5-1.997-.995-2.998-1.501-1.37-.49-2.744-.99-4.113-1.485-.938-.374-1.835-.61-2.83-.892-.438-.16-.886-.304-1.33-.449-1.444-.275-2.79-.437-4.235-.66-.512-.116-1.017-.237-1.53-.357-.586-.024-1.155-.047-1.737-.064-1.121-.12-2.255-.218-3.377-.322-1.042-.028-2.1-.035-3.147-.058-.587-.137-1.168-.252-1.75-.385-1.34-.057-2.68-.127-4.014-.196-2.849-.345-5.593-.84-8.39-1.179-1.305-.098-2.61-.195-3.917-.3-1.369-.149-2.727-.482-4.027-.712-1.727-.294-3.348-.5-4.989-.88-2.22-.53-4.309-1.537-6.345-2.418-2.946-1.265-6.18-3.112-7.934-6.034-2.554-4.287-2.618-9.706-2.583-15.327 0-.782-.201-1.323-.19-2.072.005-.615.195-1.099.2-1.736 0-.64-.166-1.146-.195-1.75a96.972 96.972 0 01-.068-4.033c.005-1 .068-2.111.12-3.159.052-.356.11-.719.167-1.08-.045-.37-.103-.731-.149-1.094 0-.903-.006-1.807-.006-2.716.006-2.065.242-3.94.258-6.092.024-4.752.179-9.252.282-13.935-.028-.616-.057-1.231-.08-1.858 0-1.375.006-2.756.017-4.13.006-1.335.236-2.412.225-3.7-.047-5.184-.138-10.528-.11-15.678.075-1.312.145-2.611.208-3.917-.046-1.024-.087-2.038-.133-3.05-.028-2.871.092-5.788.11-8.6-.035-1.417-.058-2.831-.081-4.247.063-.95.133-1.893.201-2.83.04-1.91-.063-3.712-.052-5.668.029-4.499.15-8.739.099-13.174.086-.61.155-1.232.241-1.848-.04-.327-.086-.655-.126-.983-.035-1.013-.07-2.026-.11-3.038-.023-2.618.087-5.27.185-7.743-.041-1.445-.064-2.9-.104-4.345.086-.69.167-1.38.259-2.077.005-.684-.155-1.41-.127-2.174.029-.713.213-1.289.219-2.06.017-2.842.04-5.5.143-8.279v-3.049c.075-.713-.023-1.404-.045-2.066.028-.724.063-1.455.085-2.174-.022-.927-.356-3.786.254-4.361.38-.369 1.386-.207 1.961-.207l.798-.137c.978-.066 2.385.05 3.127.05l1.266-.146 1.351.054c2.744.017 5.477.144 8.05.15l1.095-.144c.418.01.854.055 1.2.058l1.2-.15 1.291.063.58-.12.616.011.583-.138.337-.013zm57.267 169.183a.572.572 0 01.215.292c.23.726.057 1.686.052 2.474.028 1.881.046 3.763.063 5.656.069.442.357.829.547 1.22.27.621.523 1.225.8 1.834.103 0 .114-.005.074.082-.483.909-1.461 1.524-2.21 2.151-.367.46-.753.903-1.139 1.375-.472.48-.952.944-1.391 1.431l-1.151 1.578h-.098c-.673-.742-1.346-1.485-2.014-2.227-.655-.587-1.985-1.346-2.755-1.731v-.11h-.11v-.097h.11l.104-.138c.063-.009.143.003.218-.006.397-.093.805-.178 1.202-.253 1.283-.04 2.549-.087 3.808-.122.07-.212.122-.437.179-.649.058-.547.103-1.094.15-1.634-.047-.5-.11-1.013-.167-1.525a48.31 48.31 0 00.075-1.524c-.012-1.088-.145-2.267-.058-3.378.132-.615.265-1.236.403-1.853.132-.753.334-1.673.851-2.22.53-.587 1.25-.535 1.922-.81l.32.184zm-2.926-4.16c.991.149 2.21.558 2.128 1.455-.023.287-.363.287-.615.328-2.13.253-2.549 1.415-3.43 3.072-.718 1.34-.603 3.654-.638 5.42l-.138 5.103h-.097c0 .206-1.076 0-1.313.11l-1.64.19c-1.345-.019-2.692-.03-4.02-.047-1.128-.115-2.176-.914-3.188-1.346-.806-.329-1.732-.484-2.469-.926h-.108v-.115h.108l.004-.111.106.001c.8.005 3.08.08 5.245.067l2.963-.102c.826-.067 1.424-.176 1.596-.345.34-.334.334-1.725.334-2.284.022-3.515-.397-8.227 2.836-10.028.472-.27.96-.316 1.479-.512l.857.07zm11.15 12.847v.224c-.403-.006-.904.316-1.237.465-.996.449-2.015.899-3.016 1.358l-.04.083a.32.32 0 01-.108-.071c-.507-.431-.876-1.421-.933-2.089l.844.01.796-.107 3.693.127zm-32.125-16.62c-.387.032-.686.088-.825.182-.218.15-.241.426-.258.68-.017 2.91-.04 5.816-.064 8.716.017 1.254.162 3.083-.092 4.337a1.426 1.426 0 01-.483.772v.115c-.898-.012-1.686-.392-2.514-.524l-1.205-.008-1.177.082a43.758 43.758 0 00-1.75-.23c-1.12-.104-2.25-.212-3.37-.322l-.778-.05-.747.113c-2.595-.017-5.005-.534-7.509-.77-1.156-.132-2.283-.11-3.354-.306-.914-.155-1.828-.293-2.732-.454-.397-.086-.8-.178-1.208-.265-.564-.028-1.145-.051-1.726-.086-1.312-.236-2.624-.471-3.935-.701-1.002-.145-2.273-.162-3.136-.594h-.121v-.218c.173 0 .081.046.161-.08.593-.926 1.703-1.928 2.532-2.681.765-.76 1.525-1.52 2.284-2.296 1.162-1.156 2.422-2.186 3.613-3.36.587-.57 1.174-1.145 1.76-1.72.478-.523.962-1.065 1.444-1.606 2.992-2.865 6.053-5.66 8.982-8.646 1.806-1.842 3.474-3.792 5.32-5.558 2.579-2.48 5.128-4.896 7.573-7.474.7-.73 1.426-1.466 2.14-2.209.46.661.183 3.176.109 4.034-.116 1.386-.144 2.778-.156 4.245 0 .927-.115 1.893.173 2.693.27.776.817 1.443 1.289 2.134.253.397.391.92.852 1.18.667.362 2.767.454 3.636.42l4.797-.161-.117.83c-.21.857-.655 1.766-.918 2.46-.656 1.657-1.317 3.302-1.933 4.977-.236.621-.448 1.46-.897 1.98-.328.35-.783.114-1.197.286l-.662.11-2.457-.063-1.344.036zm42.482 2.442c.256.027.496.082.717.197.155 0 .196 1.162.155 1.41-.091.592.047 1.184.047 1.852-.006.978-.162 1.847-.115 2.825.068 1.012.368 3.705-.173 4.476-.164.227-.49.37-.842.465l-.987.18c.022-2.728-.138-5.633-.03-8.406.03-.788-.115-1.714.052-2.468.047-.259.19-.374.369-.564l.807.033zm3.342-24.437c-.456 1.484-.1 3.343-.151 4.934-.034 1.065-.086 2.112-.132 3.165.052.678.173 2.381-.12 2.917-.479.822-6.318.812-7.595.794-.553 0-2.002-.064-2.313.305-.115.132-.068.425-.046.598.208 1.675 1.157 3.2 1.75 4.718.384 1.035.798 3.619 1.547 4.333.21.195.79.255 1.41.268l1.633-.021 1.237-.144 1.358.045.383-.026.27.176c.436.522.309 1.955.33 2.469.024.66.064 1.306.087 1.973-.03 1.3-.42 8.221.276 8.774.216.175.776.217 1.37.215l1.575-.049c.386-.19.927-.225 1.41-.213.291-.144.657-.196 1.04-.213l1.153.006.759-.109c.317-.113.704-.135 1.105-.13l1.179.044.844-.237c.354-.09.68-.192.68-.304l1.3.224.583-.1.62.003.69-.251c.251-.052.52-.077.798-.087l1.665.021.77-.098c.248-.155.575-.21.921-.225l1.041.013.766-.098c.247-.04.507-.075.754-.104.38-.207.88-.195 1.31-.242.571-.11 1.227-.23 1.842-.345.898-.172 1.75-.58 2.739-.58.432-.249 1.524-.536 2.071-.53.276-.167.73-.22 1.081-.22.207-.154.846-.35.697-.723-.173-.5-.812-.927-1.174-1.29a214.763 214.763 0 00-2.255-2.235l-1.518-1.484c-.76-.742-1.514-1.487-2.256-2.235-2.572-2.607-5.017-5.402-7.652-8.003-.99-.96-2.054-1.818-3.003-2.779-.362-.437-.708-.88-1.07-1.329-1.91-1.993-3.917-3.907-5.91-5.825l-5.827-5.837-.022.07zm-13.037 12.646c.12.067.223.16.316.298.207.327.282.684.408 1.057.34 1.013.673 1.997.966 3.05.34 1.185.84 2.393 1.353 3.51.074.184.615 1.006.247 1.161l-.556.078c-.578-.063-1.182-.497-1.475-.877-.42-.575-.57-1.226-.788-1.881-.34-1.041-.685-2.117-1.087-3.141-.27-.69-.794-1.618-.69-2.429.062-.505.54-.713.896-.972l.41.146zm8.876-4.898c.178 0 .196-.966.196-1.196.011-2.181.057-4.453.07-6.743.004-1.577-.041-3.176.23-4.58 1.777.938 1.564 3.17 1.627 5.126.023 1.214.104 2.618.064 3.918-.064.702-.132 1.387-.196 2.07-.063 1.037.242 2.204-.15 3.154v.224h-.11l-.36-.138c-.193-.004-.41.018-.507.018l-5.12.075-1.295-.049-1.21.146-1.069-.035-1 .133c-2.003-.006-3.896-.018-5.875-.15-.443-.035-.965-.152-1.483-.217l-.762-.042-.695.139c-1.461 0-2.9-.121-4.355-.075l-.511-.018-.473.063c-.411 0-1.074-.08-1.712-.121l-.901-.019-.655.13-.738-.012-.677.115c-1.375-.018-2.762-.03-4.13-.051l-2.613-.116c-.299 0-.587.006-.886.006-.316.04-.638.068-.972.11l-2.15.01c-.622-.077-1.141-.324-1.533-1.012-.068-.132-.212-.437-.115-.61.219-.38 2.427-.407 4.754-.338l5.47.235 3.13-.137c1.019-.075 2.031-.151 3.095-.151l8.705.248 4.574-.087c1.714-.05 3.462-.031 5.199 0l5.134.087.005-.11zm-9.224-13.696c-.297.051-.577.128-.827.245-.012.478.552.99.812 1.358.524.73 3.636 4.177 3.451 4.827-.051.16-.242.178-.385.212l-2.83.035c-1.663 0-3.332-.023-5.006-.023 0-.046 0-.069.006-.115h-.11l.166-.517c.092-.163.203-.317.278-.46.524-.98 2.572-3.758 2.433-4.764-.04-.334-.288-.587-.593-.697a4.15 4.15 0 00-1.026-.2l-1.089-.005-2.205.096c-.377-.02-.998-.126-1.61-.187l-.874-.044-.669.116-3.812-.204-2.04.132c-.571.111-.991.303-1.138.618-.15.3.052.65.178.904.587 1.144 1.478 2.203 2.25 3.25.426.639.84 1.283 1.253 1.91v.11l-.322.12c-3.066-.023-6.103-.15-9.147-.161v-.219c.109 0 4.453-5.258 4.942-5.861 0-.139-.04-.139-.115-.22-.54-.057-1.099-.132-1.64-.2-.903-.04-1.806-.087-2.715-.139-2.607-.058-5.35.098-7.836-.155.005-.305 3.711-3.883 4.212-4.395 3.152-3.32 6.437-6.502 9.734-9.747a625.306 625.306 0 013.394-3.469c.362-.356.696-.742 1.163-.903 0-.064 0-.144.005-.219l1.034.777c.326.31.635.65.934.955.99 1.007 1.973 2.031 2.946 3.037.62.582 1.247 1.15 1.87 1.733 2.795 2.91 5.775 5.672 8.635 8.56 1.174 1.186 2.71 2.4 3.624 3.774l-.65.104c-.897 0-1.806-.017-2.715-.023l-.555-.046-.532.046-1.944-.03-.935.084zm-4.417 1.747c-.017.672-2.588 4.47-3.262 4.752l-.808.138c-.291.002-.593-.02-.872-.012v-.115h-.11c0-.305 2.372-3.75 2.722-4.165.179-.22.444-.391.69-.495v-.115l1.64.012zm-17.98.9c-1.005 1.313-3.077 3.291-3.663 3.541l-1.08.146c-.395-.005-.802-.04-1.158-.03.011-.985 4.004-3.855 4.81-4.66h1.645l-.554 1.002zm-66.351-12.69c0 .226-.247-.39-.27-.551-.012-.788-.029-1.588-.035-2.394.046-2.393.092-4.787.15-7.174.011-1.991.04-3.883.017-5.764-.023-.662-.057-1.318-.08-1.968.046-1.79.15-3.768.131-5.661-.022-.8-.057-1.595-.085-2.394.022-1.162.109-2.365.115-3.596-.03-.724-.052-1.444-.087-2.18.017-2.071.017-4.131.035-6.202-.03-.616-.063-1.232-.093-1.847.075-.765.145-1.536.208-2.29.063-1.72-.115-3.337-.046-5.011.063-1.266.126-2.532.183-3.808-.028-2.727-.155-5.431-.085-8.165.08-1.3.16-2.617.247-3.918-.046-.69-.098-1.38-.155-2.071-.023-2.772.068-5.603.045-8.273a87.136 87.136 0 01-.085-1.743c.04-.684.085-1.375.132-2.06.005-.81-.15-1.576-.104-2.41.064-.466.12-.933.179-1.405-.018-1.294-.064-2.622-.058-3.923 1.116.409 2.008 1.635 2.86 2.48 1.892 1.824 3.761 3.653 5.631 5.483.657.69 1.296 1.375 1.951 2.071 1.41 1.335 2.824 2.698 4.097 4.165.43.5.834 1.018 1.34 1.49.926.88 1.916 1.686 2.82 2.635.39.414.592.863 1.012 1.26 2.169 2.071 4.47 4.004 6.667 6.087 2.095 2.152 4.183 4.31 6.266 6.472 1.328 1.255 9.683 9.102 9.188 10.31-.15.23-.305.455-.46.69-.985 1.675-3.274 3.562-4.776 4.926-.517.46-.84 1.087-1.34 1.605-1.237 1.254-2.457 2.445-3.7 3.694-1.708 1.691-3.44 3.382-5.16 5.069-1.145 1.156-2.267 2.306-3.4 3.463-.288.333-.576.662-.858.984-2.847 2.652-5.684 5.39-8.532 8.03-1.594 1.48-2.888 3.205-4.441 4.696-2.302 2.249-4.59 4.487-6.875 6.73-.383.395-.85.793-1.293 1.203l-1.141 1.266h-.115zm153.689-67.9c.025-.49.05-.98.079-1.471-.058-1.266-.11-2.532-.167-3.798-.03-2.502.086-5.109-.053-7.52-.042-.764.16-2.048.038-2.953l-.25-.746c-.592.955-1.72 1.669-2.485 2.526-2.964 3.32-6.26 6.368-9.494 9.452-.79.818-1.576 1.636-2.363 2.454l-1.573 1.635c-.786.817-1.574 1.636-2.364 2.453a387.95 387.95 0 01-3.227 3.09c-.95.971-1.898 1.95-2.848 2.923-.725.69-1.536 1.26-2.231 1.996-.61.707-1.21 1.421-1.813 2.122-.68.674-1.346 1.336-2.02 2.008-.679.697-1.351 1.404-2.037 2.1-.298.248-.592.5-.885.749-.788.787-1.645 1.558-2.422 2.364-.863.88-1.542 1.87-2.469 2.75-.857.81-2.56 1.956-2.985 2.974-.006.103-.029.207-.04.305.011.362 5.442 5.794 6.19 6.53 4.182 4.091 8.41 8.256 12.582 12.358l.938 1.11c.615.581 1.23 1.185 1.846 1.767.669.656 1.255 1.473 1.945 2.169 4.303 4.361 8.705 8.825 13.043 13.215.58.582 4.056 4.373 4.476 4.378l.198-.169c.356-.758.022-3.828.032-4.428.04-.736.086-1.455.11-2.186-.017-.552-.047-1.093-.07-1.628.063-.518.133-1.013.19-1.518.012-.893-.212-1.703-.16-2.612.056-.375.108-.737.16-1.1.161-1.519.218-3.492.023-5a16.24 16.24 0 01-.115-3.054c.04-.489.173-.984.173-1.52-.04-.695-.098-1.386-.138-2.081.028-.95.12-1.945.103-2.924-.046-.333-.075-.655-.12-.99.062-.908.137-1.81.207-2.715-.098-1.496-.19-2.98-.294-4.464-.017-1.231.26-2.446.288-3.602.018-.799-.184-1.663-.207-2.502.023-.438.04-.857.068-1.3l.035-3.924c.075-.582.144-1.157.202-1.738-.098-1.059-.19-2.105-.282-3.159-.035-2.076-.017-4.096.144-6.098.063-.368.12-.725.155-1.08-.034-.444-.075-.881-.12-1.319.011-.363.04-.719.063-1.087-.075-.754-.127-1.525-.185-2.29.028-.492.054-.982.08-1.472l.049-.98zm-59.83 49.157c-.38-.003-.834-.12-1.28-.193l-.652-.058-.577.125-.759.103-1.365-.024-1.253.231-1.088.219-1.486-.065c-.548-.011-1.074.013-1.35.157-.328.028-.65.063-.977.098-.329.045-.65.075-.984.103-.519 0-1.203.075-1.52.426-.183 0-.04.58-.028.77.04 1.688-1.051 3.238-2.658 3.59l-.72.075c-1.61-.01-2.87-1.167-3.187-2.634-.092-.507.035-1.214-.287-1.617a.685.685 0 00-.639-.224l-2.284-.127-.541.11c-1.788-.006-3.376-.23-5.23-.242l-.796-.025-.728.122c-1.306-.011-2.56-.126-3.913-.126l-1.034-.005-.927.213c-1.916-.012-3.872-.167-5.771-.145l-1.133-.048-1.047.146c-.587-.005-1.163-.012-1.634-.235 0-.45.253-.83.408-1.203.53-1.289.967-1.68 2.02-2.578.575-.506 1.059-1.14 1.691-1.536 1.396-.906 3.186-1.356 5.06-1.49l2.83.019c.939.074 1.858.21 2.72.39.66.183 1.323.373 1.978.558 2.198.42 4.177.673 6.041 1.772 1.22.713 2.215 1.708 3.338 2.623.287.196.592.38.88.558.517.391 1.053 1.226 1.772 1.209l.7-.218c.647-.396 1.152-1.235 1.722-1.64.845-.616 1.68-1.278 2.623-1.733 2.566-1.236 5.126-2.526 7.951-3.228 1.03-.23 2.049-.472 3.061-.712.587-.105 1.22-.035 1.743-.248.863.011 1.732.03 2.6.046 1.445.23 2.952.938 4.08 1.795.5.558.995 1.099 1.49 1.663.6.643 1.238 1.317 1.578 2.118l.228.844h-.115l-.457.133c-.243.001-.515-.023-.63-.023-2.284-.012-4.562-.023-6.852-.04l-1.377-.034-.671.053-.564.182zM98.005 94.57c-.014.494-.068.992-.113 1.424a24.143 24.143 0 00-.144 3.267l.189 2.18c.006 1.375.012 2.762.023 4.132-.045.627-.103 1.236-.149 1.858l.086 2.175c-.046 1.926-.149 4.125-.097 6.103.057 2.147-.237 4.413-.179 6.525l.19 2.399c.01 1.634.023 3.267.029 4.896-.052.765-.115 1.525-.179 2.29l-.018 3.802c-.005 1.536.202 4.241-.235 5.518-.144.408-.644.673-.874 1.024-.352.483-.709.967-1.06 1.461l-1.058 1.007-1.076 2.072h-.103v.108h-.115c.006-2.053-.304-4.263-.328-6.316-.023-1.208.184-2.526.253-3.688.046-.904-.184-1.668-.172-2.52.016-.978.213-2.014.218-3.038-.075-1.127-.132-2.25-.19-3.377-.023-1.864.196-3.648.237-5.443-.059-1.093-.122-2.186-.167-3.274.028-.828.063-1.662.092-2.497-.064-.834-.132-1.68-.19-2.514.011-1.35.402-2.537.431-3.911-.046-.76-.11-1.531-.178-2.296.034-.431.052-.863.086-1.3.058-1.617.253-3.147.26-4.787.004-1.11-.174-2.814.114-3.786.294-1.013 3.268-4.389 4.297-4.786v-.11l.12 1.402zm54.152 26.663h-.099c0 .184-.316.357-.38.557-.172.587-.172 1.273-.178 1.94-.012 1.271-.04 2.525.115 3.7.11.7.357 1.477.352 2.288-.092.582-.179 1.169-.265 1.75-.087.862-.16 1.743-.248 2.6.046.88.098 1.75.127 2.617l-.19 5.668c-.495 0-.57-.783-.679-1.122-.178-.586-.04-1.197-.103-1.824-.133-1.133-.058-2.399-.052-3.596.012-1.087.017-2.175.034-3.267.07-1.393.317-2.699.098-4.028-.057-.38-.15-1.023-.575-1.133l-.254-.002a.286.286 0 00-.149.174c-.385 1.065-.144 2.457-.121 3.567.052 1.778-.167 3.516-.23 5.23-.023.523-.01 1.056-.028 1.572l-.214 1.478h-.097v.103h-.11v-.103c-.259 0-.299-.559-.31-.772-.092-1.605.086-3.342.115-4.896.028-1.656-.08-3.33-.075-4.895.011-1.134.184-2.302.282-3.39.017-1.265.046-2.536.086-3.797.035-6.362-.253-12.484.287-18.72.075-1.013-.103-2.09-.16-3.062-.046-.92.017-1.961.086-2.835.063-.748.04-1.353.368-1.945l.196 1.25c.01.443-.011.905-.006 1.362.023 1.691-.155 3.579.42 5.01h.322l.213-.977c.092-1.83.3-3.486.363-5.334h.103v-.109h.35l.162.662c.052.426.087.863.138 1.3.024 2.525-.218 5.259-.19 7.836.064.477.104.955.162 1.427.017.69-.34 1.306-.185 2.037.127.517.5.65 1.024.58l.115-1.196c-.017-.431-.023-.875-.034-1.306.07-.765.46-1.415.483-2.29.047-2.266-.069-4.614.15-6.748h.327v.103c.197.006.11.984.133 1.191.029.558.064 1.1.092 1.645.08.984.265 2.025.277 3.05.022 1.766-.115 3.492-.133 5.333-.012 1.79-.127 3.504-.127 5.23l.087 3.377c-.024.702-.219 1.266-.202 1.956.052.437.115.87.167 1.311.006 1.088-.005 2.175-.005 3.263-.075 1.416-.156 2.83-.248 4.24-.006 1.334.23 2.555.201 3.924-.022.926-.299 1.725-.322 2.606.121.846.247 1.68.362 2.52.145 1.266-.04 2.675-.08 3.906-.035.872.028 1.75-.123 2.53l-.234.744h-.437c.046-.293.087-.575.121-.863-.166-1.507-.311-3.21-.305-4.804l.034-6.427c.03-.517.047-1.024.081-1.524-.034-1.236-.34-2.502-.351-3.705-.012-.535.144-.937.185-1.416.085-1.357.178-3.014-.012-4.343a1.732 1.732 0 00-.235-.678l-.472-.53zm-45.123-29.848c1.23.057 2.565.305 3.716.592.759.139 1.513.277 2.255.42.679.23 1.335.46 1.991.691 2.49.938 4.821 1.772 6.524 4.073.897 1.214.69 2.911.846 4.517.42 4.786.098 9.9.006 14.705-.07 3.077-.046 6.121-.162 9.257.029 1.08.052 2.18.075 3.262-.018 2.554-.166 5.12-.253 7.628-.063 1.761-.098 3.395-.317 5.006-.2 1.42-.132 2.537-.827 3.694v.097c-.242 0-2.918-2.07-3.395-2.347-1.329-.782-3.66-1.675-5.19-1.99-1.306-.282-2.554-.23-3.9-.46-.527-.087-1.495-.276-2.461-.385l-1.392-.082c-.426.007-.796.058-1.055.173-.247.028-.5.057-.76.103-.368 0-.787.057-1.092.202l-1.088.219c-.397 0-.8-.007-1.197-.012.006-1.024.19-1.956.196-2.94.006-.83-.276-1.588-.265-2.503.07-.938.144-1.88.219-2.825.04-1.916-.103-3.728-.075-5.667.087-.938.15-1.88.23-2.824.047-2.279.087-4.678.139-6.859.023-1.127-.403-2.093-.363-3.158.097-1.49.201-2.98.3-4.464.016-1.778.034-3.556.046-5.333.017-3.039.143-5.984.16-8.93 0-.754-.172-2.732.162-3.244.339-.512 1.184-.432 1.708-.668l5.219.052zm37.89.794c.604.034 1.203-.081 1.732.167.305.005.235.736.235.984-.045.742-.189 1.553-.074 2.267.116.627.219 1.242.34 1.87.11 2.001.07 4.014.098 6.091l.086 2.52c-.018 2.624-.167 5.426-.144 8.153.063.662.126 1.311.19 1.962.04 1.547 0 3.067-.035 4.573-.017.789-.138 1.611-.178 2.394-.075 1.34.006 2.658-.07 4.028-.056.575-.12 1.156-.178 1.743-.023 1.11.064 2.307.052 3.486-.063.944-.127 1.887-.178 2.825.03 1.23.19 2.611.152 3.934l-.118 1.295c-.58-.155-1.167-.293-1.737-.442a18.446 18.446 0 00-2.515-.448l-1.4-.043c-.433.027-.818.1-1.108.243-.213.046-.425.075-.65.11-.247.034-.494.068-.754.097-.61 0-1.955.248-2.404.541-1.583-.017-2.215.438-3.435 1.082-1.007.535-2.094.862-3.09 1.41-1.127.62-2.203 1.552-3.406 2.019l-.052.057c-.097-.042-.294-.33-.333-.409-1.076-2.134-1-5.58-.99-8.255.012-1.012-.166-1.91-.16-2.83.04-.329.074-.657.12-.98-.046-.557-.086-1.098-.132-1.639-.024-2.002.091-4.067.051-5.983-.04-2.002-.166-4.125-.092-6.208.052-1.34.017-2.87.144-4.252.07-.575.138-1.156.202-1.737.017-1.49.023-2.98.04-4.459.075-1.012.15-2.037.218-3.054.07-2.043.064-4.028.346-5.886.115-.783.126-1.53.627-2.123.65-.788 1.57-1.272 2.428-1.732 3.486-1.853 7.254-2.44 11.282-3.193.88-.161 1.887-.075 2.716-.363l2.174.185zm-41.463 35.963v.115c-1.421-.017-1.404 1.893-.427 2.434.139.051.272.11.409.161 1.186.259 2.451.31 3.688.5 1.11.173 2.221.484 3.279.703.732.143 1.45.235 2.146.454 2.002.627 3.993 1.329 5.852 2.21.742.345 1.628 1.15 2.537 1.029l-.265-.562c-.151-.15-.336-.28-.478-.444-.747-.892-2.248-1.991-3.29-2.457a41.497 41.497 0 01-1.289-.467c-1.818-.862-3.59-1.506-5.529-2.128-.655-.236-1.312-.477-1.973-.714-.772-.195-1.576-.27-2.365-.437-.38-.083-.732-.18-1.1-.259l-1.195-.138zm37.569-1.421c-1.807.615-3.654 1.054-5.431 1.755-.467.253-.916.5-1.376.748-1.426.552-2.727 1.271-4.033 2.082-1.168.737-2.272 1.364-3.354 2.308-.276.24-.943.701-.696 1.14.087.16.208.226.347.232l.452-.131c.314-.163.627-.43.8-.528 2.768-1.657 5.455-2.963 8.7-3.7.955-.223 1.892-.517 2.836-.712 1.046-.225 2.226-.225 3.106-.754.76-.449.99-1.755.11-2.215a2.045 2.045 0 00-.697-.192l-.764-.033zm-37.276-12.617v.104c-1.064-.005-1.588 1.726-.782 2.376.656.524 2.047.328 2.934.368.66.086 1.306.178 1.962.26 1.696.223 3.175.897 4.688 1.478 1.128.437 2.262.857 3.355 1.374.932.438 3.998 2.947 4.763 2.837l.11-.023c.08-.023.149-.052.236-.08.206 0 .005-.5-.059-.622-.552-1.105-3.279-2.744-4.325-3.343-3.424-1.917-7.036-3.84-11.108-4.517l-1.774-.212zm46.072-3.986c-.438.874-.333 2.036-.34 3.158.007 1.369.017 2.756.017 4.125.024 1.035.012 2.163.042 3.158 0 .38-.042.88.115 1.203-.002.15.037.205.097.203l.223-.147c.164-.166.335-.418.359-.47.678-1.583.218-4.747.23-6.548.005-1.323.258-2.697-.064-3.9a1.15 1.15 0 00-.25-.462l-.429-.32zm-8.187 3.216v.108c-.53-.005-1.438.444-1.847.76-1.196-.011-2.382.725-3.394 1.14-3.199 1.306-6.599 2.502-9.217 4.942-.305.264-1.438 1.024-.926 1.547.104.103.265.115.42.115l.842-.286c.26-.154.504-.341.746-.485A30.414 30.414 0 01132.55 119c.817-.327 1.657-.506 2.514-.764 1.237-.38 2.52-.846 3.745-1.255 1.1-.374 2.244-.483 3.2-1.117.471-.322.788-.816.765-1.438-.009-.359-.133-.607-.334-.777l-.8-.315zm10.248-.067c-.181.893-.023 1.874-.036 2.845 0 1.03-.126 1.859.224 2.721h.207l.32-.22c.647-.994.647-5.06.365-5.705a.748.748 0 00-.311-.345l-.454-.156-.315.86zm-49.145-12.556c-.657.552-.645 1.564.109 2.036.909.576 2.295.507 3.36.8 3.687 1.025 7.508 2.014 10.89 3.729.633.362 1.266.712 1.899 1.07.547.327 1.036.914 1.674 1.052.12.023.281.031.426.005l.333-.206c.397-.846-3.244-3.107-3.906-3.424l-3.181-1.495c-.357-.19-.742-.397-1.104-.605-.777-.264-1.548-.54-2.325-.804-.863-.352-1.743-.732-2.664-.979a62.526 62.526 0 00-1.254-.253c-1.049-.315-2.03-.678-3.121-.84l-1.136-.086zm39.248-.007c-.238-.006-.483.004-.708.001-.586.196-1.173.408-1.766.616-.437.195-.88.39-1.328.586-1.306.443-2.619.76-3.861 1.34-1.173.541-2.36 1.232-3.463 1.934-.437.322-.88.627-1.306.932-.678.397-1.588.933-2.064 1.662l-.307.795h.12c0 .103.096.13.241.113l.542-.163c.403-.16.829-.382.92-.428 1.128-.65 2.233-1.295 3.343-1.939 1.583-.777 3.314-1.414 5-1.938 1.232-.375 2.456-.76 3.694-1.128.483-.144 1.099-.265 1.513-.553.54-.397.955-1.432.103-1.731l-.673-.099zm8.095 3.315c-.46.69-.322 1.357.535 1.524l.006-.103c.305-.382-.003-.731-.21-1.107l-.33-.314zm10.218-58.591c.95.109 1.945.334 2.95.334l1.26-.153c.408-.08.815-.156 1.25-.14l.868.137c.524.064 1.113.095 1.686.075l1.582-.23v.109h.11c0 .138.028.11-.11.11-.017.057-.04.109-.063.172-1.047 1.404-2.6 2.48-3.832 3.66l-6.979 6.856c-.523.542-1.139.956-1.65 1.491-2.094 2.134-3.982 4.452-6.134 6.5-.776.76-1.553 1.508-2.318 2.257-.444.362-.863.736-1.29 1.11-.482.575-.965 1.139-1.443 1.709a94.897 94.897 0 01-4.062 3.998c-.644.765-1.295 1.53-1.939 2.295-1.444 1.393-2.887 2.79-4.32 4.183-2.451 2.41-4.867 4.884-7.33 7.266-.823.766-1.536 1.733-2.434 2.342v.115h-.115v-.115h-.115l.11-.978c.011-.754-.133-1.513-.052-2.284.086-.403.184-.8.27-1.202.046-.748-.218-1.37.132-2.014.219-.409.726-.564 1.041-.88.634-.622 1.002-1.42 1.767-1.921.788-.53 1.784-.686 2.641-1.094.54-.287.978-.742 1.495-1.07 1.157-.753 2.503-1.404 3.378-2.601.23-.477.477-.95.707-1.426.288-.409.582-.823.869-1.243.23-.564.202-1.203.363-1.807.219-.817.638-1.564.656-2.525-.098-.84-.202-1.67-.305-2.503-.115-1.081-.714-2.048-1.358-2.86-.277-.34-.61-.673-.782-1.075-.207 0 0-.288.063-.403.178-.247.35-.495.524-.731.742-1.128 1.513-2.34 2.628-3.17.57-.42.645-1.018 1.082-1.542.518-.604 1.277-.92 1.812-1.553.277-.368.553-.742.834-1.1.225-.418.329-.856.674-1.218.35-.369.742-.541 1.116-.851.294-.277.587-.559.88-.836.351-.252.736-.338 1.053-.689.219-.328.437-.662.656-.996.587-.852 1.197-1.57 1.91-2.33.253-.225.512-.46.77-.697.24-.125.563-.159.901-.159l.987.034 3.585-.167c.557-.063 1.057-.03 1.53-.236l2.491.046zm-75.24.458l-1.727-.05c-1.537-.011-3.066.08-4.569.074.369 1.37 2.59 2.687 3.643 3.666 2.116 1.95 3.998 3.987 6.03 6.04.942 1.013 1.88 2.037 2.818 3.056 3.538 3.463 7.064 6.92 10.627 10.401.43.507.874 1.02 1.306 1.52 1.034 1.075 2.088 2.134 3.112 3.204 1.915 1.991 4.01 3.878 5.955 5.909.984 1.046 1.961 2.1 2.95 3.14 1.341 1.267 2.7 2.521 4.05 3.792.657.644 2.487 2.842 3.355 2.854l.036-.829c-.048-.869-.309-1.822-.473-2.542-.11-.409.011-.88-.012-1.312a3.8 3.8 0 00-.362-1.375c-.276-.559-.91-.897-1.295-1.376l-1.277-1.766c-.656-.62-1.565-.943-2.319-1.421l-1.674-1.116c-.402-.19-.81-.367-1.208-.57-.432-.316-.598-.84-1.024-1.138-.425-.322-1-.484-1.346-.938-.443-.615-.592-1.312-.897-1.98-.254-.592-.5-1.19-.754-1.789-.144-.586-.282-1.156-.42-1.743-.098-.903.11-1.697.276-2.497.075-.506.144-1.006.224-1.508.3-1.242 1.007-2.203 1.905-3.152.235-.23.747-.978 1.092-.978-.35-.702-.926-1.404-1.558-1.928-.328-.252-.657-.505-.979-.759-.569-.592-.914-1.271-1.501-1.875-.984-1.03-2.048-1.75-3.026-2.757-.789-.816-1.514-1.776-2.29-2.612a494.17 494.17 0 00-3.498-3.463c-.73-.747-1.56-1.83-2.526-2.158l-.635-.068a4.073 4.073 0 00-.667.11l-1.315.24-1.197-.218-2.71.006c-.662-.028-1.306-.075-1.968-.115-.422-.008-.854-.002-1.276-.013l-1.226-.119-1.65.153zm43.094 31.13c.293.226.515.515.457.832-.072.397-.56.679-1.11.813l-.826.086c-.26-.01-.49-.06-.648-.158-.92-.574.846-1.72 1.238-2.025l.889.452zm-7.218 1.467a1.742 1.742 0 01-.316-.066c-1.646-.345-3.423-.766-2.06-2.774.258.035.483.047.679.202.385.288.495.719.777 1.07.314.402.746.65 1.025 1.032l.217.435h-.11l-.212.101zm2.796-6.096c.317.202 2.514 2.325 2.555 2.555.112.617-.931 1.476-1.739 1.926l-.678.29c-.305.056-.472-.226-.673-.352-.247-.167-.546-.207-.765-.46-.558-.61-.391-1.26-.426-2.1-.023-.426-.104-.967.058-1.358.138-.35.477-.512.759-.702l.909.201zm8.975 2.246c.218.073.4.203.552.447.104 0 .069.023-.005.098 0 .25-.353.596-.76.827l-.617.234c-.194.03-.365.006-.476-.1-.615-.6.155-1.232.547-1.617l.76.111zm-17.547-2.97c.523.316 2.422 2.129 2.474 2.692.034.305-.35.74-.807 1.111l-1.248.736c-.43.086-.552-.35-.679-.662-.5-1.254-.867-2.617-.35-4.05l.61.173zm14.268-2.716c.944.345 1.755 1.726 1.41 2.716-.196.534-.795 1-1.25 1.351-.157.124-.35.278-.56.396l-.664.185c-.634-.062-.364-1.41-.207-1.765.218-.495.787-.634.827-1.254.047-.726-.488-1.054-.482-1.738l.926.109zm-9.872-.996c1.14.804 2.605 2.157 2.398 3.102-.127.54-.806 1.024-1.185 1.358-.32.27-.71.698-1.13.912l-.429.129c-.455.034-.674-.282-.967-.536-.719-.62-1.231-1.903-.99-2.922.174-.305.323-.616.49-.92.293-.88.173-1.03.857-1.709l.956.586zm16.81 3.391c-.19.352-.466.645-.811.804l-.213.02c-.114-.045-.248-.115-.328-.14 0-.79 1.024-1.365 1.548-1.842h.098l-.294 1.158zm-24.166-3.027c.586.53 1.1 1.376.576 1.815l-.446.21c-.534.129-.742-.319-.813-.882-.072-.564-.008-1.244.007-1.581l.676.438zm12.251-4.603c.679.219 2.854 1.973 2.618 2.836-.208.759-.932 1.208-1.484 1.766-.428.418-.926.892-1.495 1.147l-.593.17c-.818.104-1.98-3.537-1.83-4.176.075-.293 1.351-1.6 1.633-1.761v-.109l1.151.127zm10.1.062c.346.281.372.698.584 1.255.518 1.364.886 2.716-.523 3.757-.135.095-.265.2-.407.28l-.48.14c-.38-.006-.534-.248-.656-.564-.085-.276-.057-3.79.04-4.096.115-.38.703-.702.973-1.007l.47.235zm-18.795.33c.822.893 1.184 2.057.123 3.14a4.25 4.25 0 01-.525.453l-.597.284c-1.278.183-.736-1.375-.754-2.049-.017-.506-.16-.972-.282-1.416.006 0 .789-.949 1.094-1.086v-.115l.94.789zm11.909-2.328c.3.144.592.307.923.445.748.31 1.519.49 2.301.789.167.057.23.253.184.425-.167.466-.667.696-1.041.938-.277.165-.588.542-.93.696l-.353.064c-.667-.081-.937-.955-1.376-1.358-.482-.466-1.49-.69-1.351-1.577.045-.356.362-.546.672-.656v-.108l.97.342zm-6.78-.692c.21.057.402.145.512.32.461.717-1.035 1.997-2.169 2.552l-.927.268c-.926-.104-1.421-1.214-2.071-1.766v-.329c.224-.057.448-.115.662-.172 1.363-.201 2.243-.397 3.377-1.007l.616.134zm-16.764-14.91c-.407.19-1.26.432-1.164 1.049.012.028.012.057.023.08.023.047.051.098.075.15.523.707 1.317 1.208 1.87 1.921.483.64.678 1.438 1.248 2.025l.052.052c.529.507 1.294.61 1.818 1.128.926.897 1.485 2.094 2.238 3.095.386.512.91.696 1.358 1.14.707.719 1.403 1.437 2.105 2.14.42.34 1.151.552 1.75.552l.059-.21c.025-.064.067-.11.153-.107-.38-.891-1.046-1.772-1.778-2.467-.35-.3-.701-.604-1.041-.916-.184-.258-.345-.517-.529-.782-.478-.61-.96-1.214-1.444-1.823l-1.628-1.738c-.42-.489-.622-1.048-.979-1.536-.69-.978-1.426-1.974-2.289-2.808-.293-.29-.562-.496-.857-.645l-1.03-.304-.01.004zm18.782 12.077v-.108c-1.386-.012-2.98-4.247-3.538-5.213-.31-.535-.788-.886-1.162-1.399-.776-1.092-2.192-3.9-.99-5.165.41-.432 1.974-.15 2.601-.329.685.23 2.434.202 3.256.237.018.482.041.949.063 1.426.082.362.167.719.242 1.082-.063.39-.138.794-.195 1.191-.047 1.725-.259 3.44-.35 5.12l.171 3.158h-.098zm12.623-.148c0-.357-.005-.72-.023-1.077.161-1.087 1.059-1.582 1.67-2.399 1.155 1.012-.623 2.629-1.319 3.371v.105h-.328zm-22.54-11.864c1.547.759 2.064 3.02 2.686 4.441.402.921.95 1.819 1.386 2.74.3.488.576.972.87 1.46.195.496.263 1.024.281 1.6.005.402.08 1.168-.305 1.37l-.537.088a1.83 1.83 0 01-.533-.124c-.564-.213-8.394-9.94-8.446-10.441v-.093c0-.022.012-.057.012-.086.005-.03.012-.046.017-.075.23-.662 1.95-.673 2.565-1.024.323.003.693-.024 1.047-.02l.956.164zm26.965.017c0 .541-.714 1.094-.973 1.53-.368.593-.718 1.215-1.087 1.79-.415.57-.846 1.145-1.272 1.72-.293.443-.397.95-.753 1.358-.26.201-.524.414-.789.615-.241.277-.477.536-.719.794-.241.225-.483.46-.73.685-.444.541-.444 1.329-1.036 1.795-.265.2-.632.373-1.023.463l-.59.07a1.734 1.734 0 01-.562-.09h-.224l.762-1.43c.399-.63.838-1.254.998-1.395.3-.265.737-.281.978-.627.213-.316.178-.702.368-1.03.225-.39.656-.518.823-.96.178-.553.173-1.169.45-1.674.339-.674 1.19-.84 1.696-1.313.466-.431.559-1.017.933-1.484.385-.5.909-.587 1.444-.823l1.306.006zm-6.979.07v.218c-.167 0-.167.092-.236.202-.851 1.196-1.288 2.582-1.882 3.906-.275.477-.557.954-.822 1.438-.219.524-.449 1.047-.656 1.571-.423.79-1.325 1.996-2.267 2.65l-.937.433v-.115c-.19 0-.122-.99-.15-1.185-.087-.483-.277-.886-.213-1.426.051-.594.363-.979.357-1.623-.029-.805-.496-1.583-.306-2.388.133-.529.65-.886.812-1.426.184-.634-.046-1.168.397-1.68.46-.53 3.268-.104 4.17-.587l1.733.011zm13.065.19v.321c-1.15-.011-4.246 3.837-4.965 4.81-.334.455-.736 1.357-1.266 1.64l-.496.049a1.433 1.433 0 01-.453-.187c-.747-.46-.184-1.272.023-1.801.144-.345.173-.736.46-.99.306-.143.588-.293.886-.443.432-.322.852-.656 1.283-.996.455-.488.714-1.086 1.11-1.621.34-.34.686-.68 1.037-1.019l2.381.236zM120.487 240.143l.111.22H94.736l-2.38-.631-1.875-.593h29.35l.656 1.004zM157.1 240.363h-28.656l.528-1.224h31.677l-3.55 1.224zM115.787 234.462l.62.622H78.573l-2.678-1.148-.16-.076h39.243l.81.602zM172.67 234.574l-1.25.51h-39.435l.955-.881.478-.343h40.86l-1.608.714zM105.114 229.395l1.416.41H67.561l-1.444-.931-.453-.292h36.595l2.855.813zM150.106 228.582h34.966l-2.174 1.223h-40.09c2.365-.595 4.838-.975 7.298-1.223zM66.64 223.745l4.937.781H58.63l-.5-.296-1.01-.927h6.589l2.932.442zM191.759 224.06l-.628.466h-6.953l3.62-.986.605-.237h4.542l-1.186.758zM211.022 207.466c-.5.41-.912.635-1.2.635-.215 0-.29-.258-.268-.635h1.468z" fill="currentColor"/>
    <path d="M211.022 207.466h3.92l-3.168 1.224h-10.8l.43-.537.368-.687h7.782c-.022.377.053.635.267.635.29 0 .701-.225 1.2-.635zM39.074 202.694l-.105.717h-5.246l-1.016-1.224h6.376l-.009.507zM216.4 202.797l-.52.614h-6.618l.217-1.224h7.397l-.475.61zM39.057 198.132h-9.483l-.926-1.224h10.34l.07 1.224zM219.957 198.132h-10.123l.037-1.224h10.973l-.887 1.224zM38.8 192.853H25.829l-.826-1.224h13.795l.004 1.224zM223.762 192.853H209.94l-.026-1.224h14.668l-.82 1.224zM38.787 187.574H22.46l-.739-1.224h17.062l.003 1.224zM227.105 187.574H209.83l-.026-1.224h17.973l-.67 1.224zM38.774 182.295H19.42l-.662-1.224H38.77l.003 1.224zM229.932 182.295h-20.194l.01-1.224h20.724l-.54 1.224zM38.742 177.016H16.607l-.63-1.224H38.73l.012 1.224zM232.417 177.016h-22.633l.01-1.224h23.275l-.652 1.224zM13.497 170.513h25.262l-.017 1.224h-24.74l-.234-.512-.271-.712zM209.816 170.513h25.938l-.567 1.224h-25.356l.004-.52-.02-.704zM38.83 166.458H11.893l-.501-1.224h27.472l-.034 1.224zM237.716 165.757l-.272.701h-27.739l-.033-1.224h28.204l-.16.523zM38.989 160.676l-.014.503H9.737l-.323-1.224H38.99l-.001.72zM239.12 161.18h-29.472l.004-1.225h29.844l-.376 1.224zM39 155.9H8.41l-.23-1.224h30.821L39 155.9zM240.549 155.9h-30.874l.015-1.224h31.157l-.298 1.224zM39.002 150.621H7.297l-.328-1.224h32.033v1.224zM241.765 150.621H209.74l.015-1.224h32.241l-.232 1.224zM39 145.343H6.014l-.166-1.224H39v1.224zM242.877 144.78l-.107.563h-32.964l.015-1.224h33.154l-.098.661zM38.998 140.064H5.377l-.112-1.224h33.764l-.03 1.224zM243.573 140.064H209.84v-1.224h33.915l-.18 1.224zM39.131 134.785H4.995l-.065-1.224h34.232l-.03 1.224zM244.2 134.785h-34.365l-.001-1.224h34.41l-.043 1.224zM39.292 128.402l-.028 1.104H4.828l-.022-1.224h34.488l-.002.12zM244.305 129.506h-34.474l-.001-1.224h34.485l-.01 1.224zM39.364 124.227H4.896l.032-1.224h34.459l-.023 1.224zM244.462 124.227h-34.636v-1.224h34.69l-.054 1.224zM5.105 117.724H39.48l-.023 1.224H5.032l.007-.328.066-.896zM244.428 118.948h-34.606v-1.224h34.555l.05 1.224zM39.46 113.67H5.404l.091-1.225h33.95l.017 1.224zM244.153 113.67h-34.335l-.001-1.225h34.218l.118 1.224zM39.393 108.39H5.79l.087-1.224h33.5l.016 1.224zM243.533 107.248l.11 1.142h-33.83v-1.224h33.707l.013.082zM6.578 101.887h32.794l-.008 1.224H6.351l.084-.611.143-.613zM242.867 103.111H209.81l-.002-1.224h32.863l.196 1.224zM7.834 96.608H39.54l-.066 1.224H7.528l.154-.653.152-.57zM241.84 97.832h-32.035v-1.224h31.74l.295 1.224zM39.505 91.54l.075 1.013H8.918l.15-.56.202-.664h30.234v.21zM209.804 91.33h30.294l.406 1.223h-30.703v-.628l.003-.596zM10.919 86.051H39.49l.003 1.224H10.508l.106-.347.305-.877zM238.619 86.87l.135.405H209.83l.007-1.224h28.45l.33.819zM12.81 80.772h26.84l-.05 1.224H12.328l.008-.025.473-1.199zM236.64 81.996h-26.776l.008-1.224h26.27l.498 1.224zM39.813 76.717H14.43l.545-1.224h24.888l-.05 1.224zM234.242 76.717h-24.344l.008-1.224h23.759l.577 1.224zM39.792 71.438H16.834l.615-1.224h22.32l.023 1.224zM231.58 71.438h-21.648l.007-1.224h20.997l.645 1.224zM39.692 66.16h-20.12l.688-1.225h19.408l.024 1.224zM228.564 66.16h-18.6l.01-1.225h17.828l.762 1.224zM39.592 60.88H22.92l.908-1.224h15.742l.023 1.224zM225.065 60.783l.064.097h-15.13l.004-.534-.014-.69h14.338l.738 1.127zM39.482 55.024l.01.577H26.837l.908-1.224H39.48v.647zM221.636 55.601h-11.745l-.056-1.224h10.954l.847 1.224zM39.524 50.322h-8.768l.908-1.224h7.91l-.05 1.224zM217.967 50.322h-8.298l-.041-1.224h7.425l.914 1.224zM39.742 45.043h-4.107l1.21-1.224h2.889l.008 1.224zM212.685 44.042l1.036 1.001h-4.078l.03-1.224h2.618l.394.223zM202.202 33.988l.487.497H46.563l1.55-1.224H201.35l.852.727zM195.96 29.207H53.55l1.714-1.224h139.15l1.548 1.224zM186.909 22.956l1.454.972H61.366l1.968-1.224h123.138l.437.252zM179.198 18.65H70.785l2.5-1.225h103.524l2.39 1.224zM167.645 13.37h-85.25l3.02-1.224h79l3.23 1.224zM144.466 7.15l5.13.941H99.75l5.412-1.038 2.051-.186h35.01l2.244.282z" fill="currentColor"/>
  </symbol>
</svg>
